<?xml version="1.0" standalone="no"?>
<!DOCTYPE svg PUBLIC "-//W3C//DTD SVG 1.1//EN" "http://www.w3.org/Graphics/SVG/1.1/DTD/svg11.dtd" >
<svg xmlns="http://www.w3.org/2000/svg" xmlns:xlink="http://www.w3.org/1999/xlink" version="1.1">
<metadata>
Created by FontForge 20201107 at Wed Aug  3 09:06:48 2022
 By Unknown
(c) Ilya Ruderman and Yury Ostromentsky, CSTM Fonts, 2019
</metadata>
<defs>
<font id="MTSWide-Medium" horiz-adv-x="790" >
  <font-face 
    font-family="MTS Wide Medium"
    font-weight="500"
    font-stretch="expanded"
    units-per-em="1000"
    panose-1="2 11 3 6 2 1 2 2 3 3"
    ascent="800"
    descent="-200"
    x-height="502"
    cap-height="690"
    bbox="-192 -215 1556 907"
    underline-thickness="40"
    underline-position="-85"
    unicode-range="U+000D-FEFF"
  />
<missing-glyph horiz-adv-x="500" 
d="M0 700h500v-700h-500v700zM420 650h-340l170 -255zM450 95v510l-170 -255zM420 50l-170 255l-170 -255h340zM50 95l170 255l-170 255v-510z" />
    <glyph glyph-name="fi" unicode="fi" horiz-adv-x="645" 
d="M92 502v67q0 36 8.5 66t29 51t54 32.5t84.5 11.5h308v-98h-285q-35 0 -50.5 -16t-15.5 -49v-65h351v-502h-132v404h-219v-404h-133v404h-70v98h70z" />
    <glyph glyph-name="fl" unicode="fl" horiz-adv-x="645" 
d="M92 502v67q0 37 8.5 67t28.5 51t54.5 32t87.5 11h305v-730h-132v404h-219v-404h-133v404h-70v98h70zM225 502h219v135h-150q-38 0 -53.5 -17t-15.5 -53v-65z" />
    <glyph glyph-name=".notdef" horiz-adv-x="500" 
d="M0 700h500v-700h-500v700zM420 650h-340l170 -255zM450 95v510l-170 -255zM420 50l-170 255l-170 -255h340zM50 95l170 255l-170 255v-510z" />
    <glyph glyph-name=".null" horiz-adv-x="0" 
 />
    <glyph glyph-name="uni000D" unicode="&#xd;" horiz-adv-x="236" 
 />
    <glyph glyph-name="space" unicode=" " horiz-adv-x="236" 
 />
    <glyph glyph-name="uni00A0" unicode="&#xa0;" horiz-adv-x="236" 
 />
    <glyph glyph-name="uni2000" unicode="&#x2000;" horiz-adv-x="500" 
 />
    <glyph glyph-name="uni2001" unicode="&#x2001;" horiz-adv-x="1000" 
 />
    <glyph glyph-name="uni2002" unicode="&#x2002;" horiz-adv-x="500" 
 />
    <glyph glyph-name="uni2003" unicode="&#x2003;" horiz-adv-x="1000" 
 />
    <glyph glyph-name="uni2004" unicode="&#x2004;" horiz-adv-x="333" 
 />
    <glyph glyph-name="uni2005" unicode="&#x2005;" horiz-adv-x="250" 
 />
    <glyph glyph-name="uni2006" unicode="&#x2006;" horiz-adv-x="167" 
 />
    <glyph glyph-name="uni2007" unicode="&#x2007;" 
 />
    <glyph glyph-name="uni2008" unicode="&#x2008;" horiz-adv-x="254" 
 />
    <glyph glyph-name="uni2009" unicode="&#x2009;" horiz-adv-x="125" 
 />
    <glyph glyph-name="uni200A" unicode="&#x200a;" horiz-adv-x="42" 
 />
    <glyph glyph-name="uni205F" unicode="&#x205f;" horiz-adv-x="222" 
 />
    <glyph glyph-name="uni200B" unicode="&#x200b;" horiz-adv-x="0" 
 />
    <glyph glyph-name="uni2060" unicode="&#x2060;" horiz-adv-x="0" 
 />
    <glyph glyph-name="uniFEFF" unicode="&#xfeff;" horiz-adv-x="0" 
 />
    <glyph glyph-name="uni00A0.narrow" unicode="&#x202f;" horiz-adv-x="177" 
 />
    <glyph glyph-name="A" unicode="A" horiz-adv-x="811" 
d="M502 690l304 -690h-146l-77 177h-369l-77 -177h-132l305 690h192zM259 280h279l-140 319z" />
    <glyph glyph-name="B" unicode="B" horiz-adv-x="783" 
d="M511 690q100 0 153.5 -41.5t53.5 -126.5q0 -55 -25.5 -98t-86.5 -62q68 -17 100 -58.5t32 -105.5q0 -97 -54.5 -147.5t-163.5 -50.5h-442v690h433zM597 218q0 42 -28 65.5t-85 23.5h-268v-212h268q113 0 113 92v31zM576 513q0 82 -101 82h-259v-197h259q51 0 76 23.5
t25 67.5v24z" />
    <glyph glyph-name="C" unicode="C" horiz-adv-x="828" 
d="M46 344q0 98 25.5 166.5t74.5 111t120 61.5t163 19q165 0 257 -54.5t107 -181.5h-141q-14 74 -69 100.5t-154 26.5q-55 0 -100 -10t-76.5 -34.5t-48.5 -65.5t-17 -102v-70q0 -60 17 -101t48.5 -66t76 -36t100.5 -11q48 0 85.5 5t65.5 18.5t46 36.5t27 59h141
q-19 -122 -110.5 -175t-254.5 -53q-92 0 -163 18.5t-120 60.5t-74.5 110t-25.5 167z" />
    <glyph glyph-name="D" unicode="D" horiz-adv-x="862" 
d="M456 114q53 0 93.5 11t68.5 35.5t42 63t14 93.5v61q0 107 -56 152.5t-162 45.5h-238v-462h238zM464 690q86 0 152 -18.5t110.5 -60t67 -107t22.5 -159.5q0 -93 -22.5 -158.5t-67 -107t-110.5 -60.5t-152 -19h-386v690h386z" />
    <glyph glyph-name="E" unicode="E" horiz-adv-x="716" 
d="M670 690v-109h-452v-176h348v-105h-348v-191h456v-109h-596v690h592z" />
    <glyph glyph-name="Edieresis" unicode="&#xcb;" horiz-adv-x="716" 
d="M670 690v-109h-452v-176h348v-105h-348v-191h456v-109h-596v690h592zM169 828q0 65 73 65t73 -65t-73 -65t-73 65zM434 828q0 65 73 65t73 -65t-73 -65t-73 65z" />
    <glyph glyph-name="F" unicode="F" horiz-adv-x="689" 
d="M660 690v-114h-442v-183h361v-112h-361v-281h-140v690h582z" />
    <glyph glyph-name="G" unicode="G" horiz-adv-x="854" 
d="M46 344q0 99 25.5 167t75 110.5t121 61.5t163.5 19q83 0 148 -12.5t111 -39.5t74 -70.5t38 -105.5h-141q-15 69 -71.5 94.5t-158.5 25.5q-60 0 -105.5 -11t-76 -36.5t-46.5 -66t-16 -99.5v-72q0 -117 62 -165t182 -48q122 0 179.5 38.5t64.5 123.5h-232v95h368v-58
q0 -79 -25.5 -136.5t-74 -95.5t-119 -56.5t-161.5 -18.5q-92 0 -163.5 18.5t-121 60.5t-75 110t-25.5 167z" />
    <glyph glyph-name="H" unicode="H" horiz-adv-x="844" 
d="M218 690v-279h409v279h140v-690h-140v297h-409v-297h-140v690h140z" />
    <glyph glyph-name="I" unicode="I" horiz-adv-x="295" 
d="M218 690v-690h-140v690h140z" />
    <glyph glyph-name="J" unicode="J" horiz-adv-x="429" 
d="M142 111q40 0 56.5 21t16.5 60v498h139v-529q0 -80 -37.5 -120.5t-129.5 -40.5h-170v111h125z" />
    <glyph glyph-name="K" unicode="K" horiz-adv-x="777" 
d="M760 690l-321 -332l340 -358h-180l-283 295h-98v-295h-140v690h140v-281h103l273 281h166z" />
    <glyph glyph-name="L" unicode="L" horiz-adv-x="657" 
d="M218 690v-576h422v-114h-562v690h140z" />
    <glyph glyph-name="M" unicode="M" horiz-adv-x="1009" 
d="M206 573v-573h-128v690h218l211 -565l213 565h211v-690h-139v576l-218 -576h-151z" />
    <glyph glyph-name="N" unicode="N" horiz-adv-x="857" 
d="M207 555v-555h-129v690h191l381 -554v554h129v-690h-190z" />
    <glyph glyph-name="O" unicode="O" horiz-adv-x="910" 
d="M723 382q0 114 -67.5 162.5t-200.5 48.5q-134 0 -201 -48.5t-67 -162.5v-71q0 -58 16.5 -98.5t50 -66t84 -37.5t117.5 -12q133 0 200.5 49t67.5 165v71zM46 348q0 98 26.5 165.5t78 109.5t128 60.5t176.5 18.5t176.5 -18.5t128 -60.5t78 -109.5t26.5 -165.5
q0 -100 -26.5 -168.5t-78 -111t-128 -61.5t-176.5 -19t-176.5 19t-128 61.5t-78 111t-26.5 168.5z" />
    <glyph glyph-name="P" unicode="P" horiz-adv-x="777" 
d="M513 690q121 0 177.5 -58.5t56.5 -164.5q0 -107 -56.5 -166t-177.5 -59h-295v-242h-140v690h435zM606 480q0 45 -26 73t-86 28h-276v-230h276q60 0 86 27.5t26 72.5v29z" />
    <glyph glyph-name="Q" unicode="Q" horiz-adv-x="910" 
d="M46 348q0 98 26.5 165.5t78 109.5t128 60.5t176.5 18.5t176.5 -18.5t128 -60.5t78 -109.5t26.5 -165.5q0 -96 -24 -162.5t-72 -109.5l96 -100l-98 -77l-110 115q-42 -14 -92 -20t-109 -6q-100 0 -176.5 19t-128 61.5t-78 111t-26.5 168.5zM723 382q0 114 -67.5 162.5
t-200.5 48.5q-134 0 -201 -48.5t-67 -162.5v-71q0 -58 16.5 -98.5t50 -66t84 -37.5t117.5 -12q133 0 200.5 49t67.5 165v71z" />
    <glyph glyph-name="R" unicode="R" horiz-adv-x="806" 
d="M511 690q116 0 176.5 -55.5t60.5 -158.5q0 -82 -36.5 -133.5t-107.5 -71.5l169 -271h-156l-161 259h-238v-259h-140v690h433zM607 487q0 45 -26 71.5t-89 26.5h-274v-220h274q62 0 88.5 26.5t26.5 70.5v25z" />
    <glyph glyph-name="S" unicode="S" horiz-adv-x="780" 
d="M182 201q7 -33 23 -54t42 -33t63.5 -17t88.5 -5q105 0 153 24t48 78q0 36 -23.5 55t-62 29t-88 14t-100.5 8.5t-100.5 14t-88 30.5t-62 56.5t-23.5 93.5q0 109 87.5 158t247.5 49q159 0 244 -47t96 -156h-143q-4 29 -19.5 48t-40.5 30.5t-59.5 16t-77.5 4.5
q-100 0 -149 -21.5t-49 -78.5q0 -34 23.5 -52t62 -27.5t88 -13.5t101 -8.5t101 -14.5t88 -30.5t62 -56.5t23.5 -93q0 -113 -82 -163.5t-257 -50.5q-89 0 -153.5 12t-108 37.5t-67.5 66t-31 97.5h143z" />
    <glyph glyph-name="T" unicode="T" horiz-adv-x="736" 
d="M16 576v114h704v-114h-282v-576h-140v576h-282z" />
    <glyph glyph-name="U" unicode="U" horiz-adv-x="838" 
d="M70 690h140v-406q0 -54 13.5 -90.5t40.5 -58t67 -30.5t92 -9t92 9t67 30.5t40.5 58t13.5 90.5v406h132v-410q0 -151 -85.5 -221.5t-259.5 -70.5q-177 0 -265 70.5t-88 221.5v410z" />
    <glyph glyph-name="V" unicode="V" horiz-adv-x="801" 
d="M797 690l-302 -690h-189l-301 690h150l254 -589l256 589h132z" />
    <glyph glyph-name="W" unicode="W" horiz-adv-x="1055" 
d="M1040 690l-176 -690h-183l-156 562l-161 -562h-178l-170 690h140l137 -565l162 565h162l155 -563l142 563h126z" />
    <glyph glyph-name="X" unicode="X" horiz-adv-x="787" 
d="M2 0l305 347l-301 343h168l224 -255l223 255h154l-297 -338l310 -352h-168l-233 264l-232 -264h-153z" />
    <glyph glyph-name="Y" unicode="Y" horiz-adv-x="789" 
d="M2 690h160l246 -304l231 304h142l-309 -403v-287h-140v287z" />
    <glyph glyph-name="Z" unicode="Z" horiz-adv-x="738" 
d="M512 577h-464v113h643v-114l-470 -463h476v-113h-655v114z" />
    <glyph glyph-name="uni0404" unicode="&#x404;" horiz-adv-x="828" 
d="M46 344q0 98 25.5 166.5t74.5 111t120.5 61.5t162.5 19q82 0 146.5 -12.5t110.5 -40.5t72.5 -72.5t34.5 -108.5h-141q-7 37 -24 61.5t-45 38.5t-66.5 19.5t-87.5 5.5q-53 0 -96 -9.5t-74.5 -31.5t-50 -58.5t-21.5 -90.5h363v-102h-363q1 -57 18.5 -96t49 -63t75.5 -34.5
t99 -10.5q48 0 85.5 5t65.5 18.5t46 36.5t27 59h141q-19 -122 -110.5 -175t-254.5 -53q-91 0 -162.5 18.5t-120.5 60.5t-74.5 110t-25.5 167z" />
    <glyph glyph-name="uni0406" unicode="&#x406;" horiz-adv-x="295" 
d="M218 690v-690h-140v690h140z" />
    <glyph glyph-name="uni0407" unicode="&#x407;" horiz-adv-x="295" 
d="M20 827q0 66 58 66q59 0 59 -66t-59 -66q-58 0 -58 66zM159 827q0 66 58 66t58 -66t-58 -66t-58 66zM218 690v-690h-140v690h140z" />
    <glyph glyph-name="uni0408" unicode="&#x408;" horiz-adv-x="429" 
d="M142 111q40 0 56.5 21t16.5 60v498h139v-529q0 -80 -37.5 -120.5t-129.5 -40.5h-170v111h125z" />
    <glyph glyph-name="uni0410" unicode="&#x410;" horiz-adv-x="811" 
d="M502 690l304 -690h-146l-77 177h-369l-77 -177h-132l305 690h192zM259 280h279l-140 319z" />
    <glyph glyph-name="uni0411" unicode="&#x411;" horiz-adv-x="777" 
d="M694 690v-108h-478v-166h298q118 0 172.5 -53.5t54.5 -151.5q0 -99 -55 -155t-172 -56h-436v690h616zM599 223q0 42 -26.5 67.5t-88.5 25.5h-268v-213h268q61 0 88 25t27 67v28z" />
    <glyph glyph-name="uni0412" unicode="&#x412;" horiz-adv-x="783" 
d="M511 690q100 0 153.5 -41.5t53.5 -126.5q0 -55 -25.5 -98t-86.5 -62q68 -17 100 -58.5t32 -105.5q0 -97 -54.5 -147.5t-163.5 -50.5h-442v690h433zM597 218q0 42 -28 65.5t-85 23.5h-268v-212h268q113 0 113 92v31zM576 513q0 82 -101 82h-259v-197h259q51 0 76 23.5
t25 67.5v24z" />
    <glyph glyph-name="uni0413" unicode="&#x413;" horiz-adv-x="640" 
d="M623 690v-114h-405v-576h-140v690h545z" />
    <glyph glyph-name="uni0414" unicode="&#x414;" horiz-adv-x="892" 
d="M12 114h79q12 19 23.5 47t20 67t13.5 91t5 118v253h623v-576h93v-264h-130v150h-597v-150h-130v264zM283 576v-139q0 -133 -15.5 -209.5t-36.5 -113.5h405v462h-353z" />
    <glyph glyph-name="uni0415" unicode="&#x415;" horiz-adv-x="716" 
d="M670 690v-109h-452v-176h348v-105h-348v-191h456v-109h-596v690h592z" />
    <glyph glyph-name="uni0401" unicode="&#x401;" horiz-adv-x="716" 
d="M670 690v-109h-452v-176h348v-105h-348v-191h456v-109h-596v690h592zM169 828q0 65 73 65t73 -65t-73 -65t-73 65zM434 828q0 65 73 65t73 -65t-73 -65t-73 65z" />
    <glyph glyph-name="uni0416" unicode="&#x416;" horiz-adv-x="1168" 
d="M1152 690l-312 -329l329 -361h-175l-271 294h-71v-294h-140v294h-72l-270 -294h-171l324 356l-315 334h164l267 -282h73v282h140v-282h73l267 282h160z" />
    <glyph glyph-name="uni0417" unicode="&#x417;" horiz-adv-x="781" 
d="M178 198q10 -59 65.5 -82t153.5 -23q105 0 153 23.5t48 73.5v24q0 44 -37 66t-109 22h-187v102h187q62 0 94.5 22t32.5 62v21q0 48 -44.5 68t-141.5 20q-89 0 -143 -20.5t-64 -76.5h-141q11 109 101 155.5t247 46.5q171 0 249.5 -46.5t78.5 -139.5q0 -60 -35.5 -100
t-98.5 -54q71 -14 111.5 -54t40.5 -106q0 -107 -82.5 -160.5t-259.5 -53.5q-162 0 -255.5 48.5t-104.5 161.5h141z" />
    <glyph glyph-name="uni0418" unicode="&#x418;" horiz-adv-x="859" 
d="M229 0h-151v690h140v-518l413 518h150v-690h-139v518z" />
    <glyph glyph-name="uni0419" unicode="&#x419;" horiz-adv-x="859" 
d="M229 0h-151v690h140v-518l413 518h150v-690h-139v518zM340 907q2 -45 23.5 -63t67.5 -18t67.5 18t23.5 63h115q-2 -80 -51.5 -120t-154.5 -40q-104 0 -154 40t-52 120h115z" />
    <glyph glyph-name="uni041A" unicode="&#x41a;" horiz-adv-x="777" 
d="M760 690l-321 -332l340 -358h-180l-283 295h-98v-295h-140v690h140v-281h103l273 281h166z" />
    <glyph glyph-name="uni041B" unicode="&#x41b;" horiz-adv-x="825" 
d="M37 123q36 0 57.5 15t33 48t15.5 86t4 128v290h600v-690h-140v576h-330v-176q0 -111 -9 -187t-33 -123.5t-67 -68.5t-111 -21h-41v123h21z" />
    <glyph glyph-name="uni041C" unicode="&#x41c;" horiz-adv-x="1009" 
d="M206 573v-573h-128v690h218l211 -565l213 565h211v-690h-139v576l-218 -576h-151z" />
    <glyph glyph-name="uni041D" unicode="&#x41d;" horiz-adv-x="844" 
d="M218 690v-279h409v279h140v-690h-140v297h-409v-297h-140v690h140z" />
    <glyph glyph-name="uni041E" unicode="&#x41e;" horiz-adv-x="910" 
d="M723 382q0 114 -67.5 162.5t-200.5 48.5q-134 0 -201 -48.5t-67 -162.5v-71q0 -58 16.5 -98.5t50 -66t84 -37.5t117.5 -12q133 0 200.5 49t67.5 165v71zM46 348q0 98 26.5 165.5t78 109.5t128 60.5t176.5 18.5t176.5 -18.5t128 -60.5t78 -109.5t26.5 -165.5
q0 -100 -26.5 -168.5t-78 -111t-128 -61.5t-176.5 -19t-176.5 19t-128 61.5t-78 111t-26.5 168.5z" />
    <glyph glyph-name="uni041F" unicode="&#x41f;" horiz-adv-x="830" 
d="M752 690v-690h-140v576h-394v-576h-140v690h674z" />
    <glyph glyph-name="uni0420" unicode="&#x420;" horiz-adv-x="777" 
d="M513 690q121 0 177.5 -58.5t56.5 -164.5q0 -107 -56.5 -166t-177.5 -59h-295v-242h-140v690h435zM606 480q0 45 -26 73t-86 28h-276v-230h276q60 0 86 27.5t26 72.5v29z" />
    <glyph glyph-name="uni0421" unicode="&#x421;" horiz-adv-x="828" 
d="M46 344q0 98 25.5 166.5t74.5 111t120 61.5t163 19q165 0 257 -54.5t107 -181.5h-141q-14 74 -69 100.5t-154 26.5q-55 0 -100 -10t-76.5 -34.5t-48.5 -65.5t-17 -102v-70q0 -60 17 -101t48.5 -66t76 -36t100.5 -11q48 0 85.5 5t65.5 18.5t46 36.5t27 59h141
q-19 -122 -110.5 -175t-254.5 -53q-92 0 -163 18.5t-120 60.5t-74.5 110t-25.5 167z" />
    <glyph glyph-name="uni0422" unicode="&#x422;" horiz-adv-x="736" 
d="M16 576v114h704v-114h-282v-576h-140v576h-282z" />
    <glyph glyph-name="uni0423" unicode="&#x423;" horiz-adv-x="764" 
d="M159 690l242 -383l223 383h137l-401 -690h-138l106 183l-323 507h154z" />
    <glyph glyph-name="uni040E" unicode="&#x40e;" horiz-adv-x="764" 
d="M159 690l242 -383l223 383h137l-401 -690h-138l106 183l-323 507h154zM309 907q2 -45 23.5 -63t67.5 -18t67.5 18t23.5 63h115q-2 -80 -51.5 -120t-154.5 -40q-104 0 -154 40t-52 120h115z" />
    <glyph glyph-name="uni0424" unicode="&#x424;" horiz-adv-x="1042" 
d="M451 96q-105 0 -182.5 14t-129 45.5t-77 81.5t-25.5 124q0 76 25.5 127t77 82t129 44t182.5 13v75h140v-75q105 0 183 -13t129 -44t76.5 -82t25.5 -127q0 -74 -25.5 -124t-76.5 -81.5t-129 -45.5t-183 -14v-108h-140v108zM451 521q-76 0 -128 -7.5t-84.5 -24t-46.5 -44
t-14 -66.5v-37q0 -38 14 -64.5t46 -43.5t84 -25t129 -8v320zM864 379q0 40 -14 67t-46 43.5t-84 24t-129 7.5v-320q78 0 130 8t84 25t45.5 43.5t13.5 64.5v37z" />
    <glyph glyph-name="uni0425" unicode="&#x425;" horiz-adv-x="787" 
d="M2 0l305 347l-301 343h168l224 -255l223 255h154l-297 -338l310 -352h-168l-233 264l-232 -264h-153z" />
    <glyph glyph-name="uni0426" unicode="&#x426;" horiz-adv-x="867" 
d="M713 0h-635v690h140v-576h394v576h140v-576h91v-264h-130v150z" />
    <glyph glyph-name="uni0427" unicode="&#x427;" horiz-adv-x="801" 
d="M584 266q-41 -4 -92.5 -6.5t-101.5 -2.5q-95 0 -159.5 13.5t-105 43t-58 75t-17.5 110.5v191h139v-172q0 -47 13 -75.5t40 -45t68 -22t96 -5.5q42 0 88 2t90 7v311h139v-690h-139v266v0z" />
    <glyph glyph-name="uni0428" unicode="&#x428;" horiz-adv-x="1150" 
d="M218 690v-576h287v576h140v-576h287v576h140v-690h-994v690h140z" />
    <glyph glyph-name="uni0429" unicode="&#x429;" horiz-adv-x="1188" 
d="M218 690v-576h287v576h140v-576h287v576h140v-576h91v-264h-130v150h-955v690h140z" />
    <glyph glyph-name="uni042A" unicode="&#x42a;" horiz-adv-x="899" 
d="M342 690v-231h290q123 0 180 -60.5t57 -169.5q0 -107 -57.5 -168t-179.5 -61h-430v576h-184v114h324zM728 246q0 44 -26.5 73t-90.5 29h-269v-237h269q64 0 90.5 29t26.5 73v33z" />
    <glyph glyph-name="uni042B" unicode="&#x42b;" horiz-adv-x="1046" 
d="M218 690v-231h290q123 0 180 -60.5t57 -169.5q0 -107 -57.5 -168t-179.5 -61h-430v690h140zM604 246q0 44 -26.5 73t-90.5 29h-269v-237h269q65 0 91 28.5t26 74.5v32zM968 690v-690h-140v690h140z" />
    <glyph glyph-name="uni042C" unicode="&#x42c;" horiz-adv-x="775" 
d="M218 690v-231h290q123 0 180 -60.5t57 -169.5q0 -107 -57.5 -168t-179.5 -61h-430v690h140zM604 246q0 44 -26.5 73t-90.5 29h-269v-237h269q65 0 91 28.5t26 74.5v32z" />
    <glyph glyph-name="uni042D" unicode="&#x42d;" horiz-adv-x="827" 
d="M285 402h354q-2 54 -19.5 90.5t-48 59t-73 32t-95.5 9.5q-47 0 -85.5 -5.5t-67 -19t-47.5 -37.5t-26 -61h-141q9 64 37 108.5t74.5 72t111 39.5t145.5 12q88 0 158 -18t119 -60t75 -110.5t26 -169.5q0 -100 -26.5 -168t-76 -110t-120 -60t-159.5 -18q-164 0 -257.5 53
t-110.5 173h141q9 -34 28 -56.5t47.5 -36t66.5 -19t85 -5.5q54 0 98 10t75 34t48 63t19 96h-355v102z" />
    <glyph glyph-name="uni042E" unicode="&#x42e;" horiz-adv-x="1161" 
d="M218 690v-278h113q9 80 38 135t78.5 89.5t118.5 50t156 15.5q96 0 169.5 -18.5t123.5 -60.5t75.5 -110.5t25.5 -167.5q0 -98 -25.5 -165.5t-75.5 -110.5t-123.5 -62t-169.5 -19q-90 0 -161 17t-120.5 54.5t-77.5 97t-34 144.5h-111v-301h-140v690h140zM974 378
q0 116 -63 165.5t-189 49.5t-189 -49.5t-63 -166.5v-61q0 -119 63 -169t189 -50t189 50t63 169v62z" />
    <glyph glyph-name="uni042F" unicode="&#x42f;" horiz-adv-x="802" 
d="M349 257l-159 -257h-152l167 267q-152 36 -152 206q0 101 59.5 159t180.5 58h431v-690h-140v257h-235zM315 582q-61 0 -91 -25t-30 -71v-26q0 -45 30 -70.5t91 -25.5h269v218h-269z" />
    <glyph glyph-name="uni0490" unicode="&#x490;" horiz-adv-x="640" 
d="M492 690v150h131v-264h-405v-576h-140v690h414z" />
    <glyph glyph-name="a" unicode="a" horiz-adv-x="671" 
d="M41 138q0 71 49.5 110.5t168.5 44.5l217 8v16q0 60 -34.5 85t-106.5 25q-63 0 -98 -16.5t-45 -57.5h-133q12 81 79 121.5t196 40.5q139 0 206.5 -47.5t67.5 -150.5v-317h-127v86q-29 -47 -87 -72.5t-145 -25.5q-110 0 -159 40t-49 110zM289 75q39 0 73.5 7.5t59.5 23
t39.5 41t14.5 61.5v20l-188 -7q-59 -3 -86 -18t-27 -51v-9q0 -35 27 -51.5t87 -16.5z" />
    <glyph glyph-name="b" unicode="b" horiz-adv-x="724" 
d="M202 730v-307q32 48 85.5 70t129.5 22q63 0 112 -14.5t83.5 -46.5t52.5 -82t18 -121t-18 -121t-52.5 -81.5t-83.5 -46t-112 -14.5q-78 0 -133 22.5t-86 73.5v-84h-129v730h133zM549 284q0 77 -44 108t-128 31q-85 0 -129 -29.5t-46 -102.5v-71q0 -75 44 -107.5t131 -32.5
q85 0 128.5 32.5t43.5 107.5v64z" />
    <glyph glyph-name="c" unicode="c" horiz-adv-x="647" 
d="M40 251q0 71 18 121t54 82t91.5 46.5t130.5 14.5q124 0 195.5 -39.5t83.5 -128.5h-133q-12 40 -45 58t-101 18q-83 0 -121.5 -31t-38.5 -106v-68q0 -78 41 -108t119 -30q70 0 103 19.5t45 55.5h133q-14 -84 -82.5 -125.5t-198.5 -41.5q-73 0 -128 13t-92 44t-55.5 81
t-18.5 125z" />
    <glyph glyph-name="d" unicode="d" horiz-adv-x="723" 
d="M39 249q0 71 18.5 121.5t53.5 82.5t85 47t114 15q75 0 127.5 -21.5t83.5 -68.5v305h133v-730h-129v85q-60 -97 -215 -97q-63 0 -113.5 14t-85.5 45.5t-53.5 81t-18.5 120.5zM521 284q0 75 -44.5 107t-129.5 32t-129 -31.5t-44 -108.5v-65q0 -75 44.5 -106.5t128.5 -31.5
q85 0 129.5 32t44.5 108v64z" />
    <glyph glyph-name="e" unicode="e" horiz-adv-x="661" 
d="M40 251q0 140 75.5 202t215.5 62q70 0 124 -13.5t91.5 -43.5t57 -77t19.5 -114v-28h-452v-20q0 -75 40.5 -109t119.5 -34q68 0 106 18.5t51 59.5h131q-21 -87 -94 -126.5t-194 -39.5q-70 0 -124.5 14.5t-91.5 46t-56 81.5t-19 121zM331 428q-71 0 -113.5 -27t-46.5 -91
h321q-3 64 -42.5 91t-118.5 27z" />
    <glyph glyph-name="edieresis" unicode="&#xeb;" horiz-adv-x="661" 
d="M40 251q0 140 75.5 202t215.5 62q70 0 124 -13.5t91.5 -43.5t57 -77t19.5 -114v-28h-452v-20q0 -75 40.5 -109t119.5 -34q68 0 106 18.5t51 59.5h131q-21 -87 -94 -126.5t-194 -39.5q-70 0 -124.5 14.5t-91.5 46t-56 81.5t-19 121zM331 428q-71 0 -113.5 -27t-46.5 -91
h321q-3 64 -42.5 91t-118.5 27zM140 660q0 64 73 64q74 0 74 -64q0 -65 -74 -65q-73 0 -73 65zM375 660q0 64 73 64q35 0 54.5 -16t19.5 -48t-19.5 -48.5t-54.5 -16.5q-73 0 -73 65z" />
    <glyph glyph-name="f" unicode="f" horiz-adv-x="423" 
d="M92 502v67q0 39 8 69t28 50.5t53.5 31t84.5 10.5h149v-98h-124q-35 0 -50.5 -16t-15.5 -49v-65h190v-98h-190v-404h-133v404h-70v98h70z" />
    <glyph glyph-name="g" unicode="g" horiz-adv-x="724" 
d="M41 253q0 69 18.5 119t53 81.5t85 46.5t115.5 15q76 0 129.5 -22t84.5 -72v81h130v-455q0 -137 -73 -198t-227 -61q-138 0 -209 42t-88 120h137q19 -40 56 -56t104 -16q45 0 76.5 8t51.5 26.5t29 50t9 78.5v44q-31 -45 -83.5 -65.5t-126.5 -20.5q-64 0 -114.5 14
t-85.5 44.5t-53.5 78.5t-18.5 117zM523 284q0 77 -43 108t-131 31q-86 0 -130 -32t-44 -108v-57q0 -74 44 -105t130 -31t129 30t45 101v63z" />
    <glyph glyph-name="h" unicode="h" horiz-adv-x="698" 
d="M502 305q0 68 -37 92.5t-107 24.5q-71 0 -113.5 -27t-42.5 -92v-303h-133v730h131v-312q26 51 82.5 74t128.5 23q107 0 165.5 -45t58.5 -150v-320h-133v305z" />
    <glyph glyph-name="dotlessi" unicode="&#x131;" horiz-adv-x="271" 
d="M202 502v-502h-133v502h133z" />
    <glyph glyph-name="i" unicode="i" horiz-adv-x="271" 
d="M57 660q0 32 20 49t58 17q79 0 79 -66q0 -67 -79 -67q-38 0 -58 17t-20 50zM202 502v-502h-133v502h133z" />
    <glyph glyph-name="uni0237" unicode="&#x237;" horiz-adv-x="271" 
d="M5 -102q35 0 49.5 17.5t14.5 51.5v535h133v-549q0 -38 -7.5 -67t-25.5 -48t-48 -28.5t-74 -9.5h-94v98h52z" />
    <glyph glyph-name="j" unicode="j" horiz-adv-x="271" 
d="M57 660q0 32 20.5 49t57.5 17q80 0 80 -66q0 -67 -80 -67q-37 0 -57.5 17t-20.5 50zM5 -102q35 0 49.5 17.5t14.5 51.5v535h133v-549q0 -38 -7.5 -67t-25.5 -48t-48 -28.5t-74 -9.5h-94v98h52z" />
    <glyph glyph-name="k" unicode="k" horiz-adv-x="641" 
d="M622 502l-230 -239l256 -263h-166l-200 205h-80v-205h-133v730h133v-427h77l193 199h150z" />
    <glyph glyph-name="l" unicode="l" horiz-adv-x="271" 
d="M202 730v-730h-133v730h133z" />
    <glyph glyph-name="m" unicode="m" horiz-adv-x="1036" 
d="M841 309q0 34 -8.5 56t-24 34.5t-38.5 17.5t-52 5q-27 0 -50.5 -5.5t-41 -18t-27.5 -33.5t-11 -52v-313h-133v309q0 34 -8 56t-24 34.5t-38.5 17.5t-50.5 5q-58 0 -95 -25.5t-37 -89.5v-307h-133v502h129v-87q23 51 74 75.5t115 24.5q71 0 118 -24t67 -78
q24 51 77.5 76.5t123.5 25.5q100 0 150 -46t50 -149v-320h-132v309v0z" />
    <glyph glyph-name="n" unicode="n" horiz-adv-x="698" 
d="M502 305q0 68 -37 92.5t-107 24.5q-71 0 -113.5 -27t-42.5 -92v-303h-133v502h129v-88q25 53 82.5 77t130.5 24q107 0 165.5 -45t58.5 -150v-320h-133v305z" />
    <glyph glyph-name="o" unicode="o" horiz-adv-x="695" 
d="M521 283q0 77 -44 108.5t-129 31.5q-86 0 -130 -31.5t-44 -108.5v-62q0 -77 44 -109t130 -32t129.5 32t43.5 110v61zM40 251q0 74 20 124.5t59 81.5t96.5 44.5t132.5 13.5t132.5 -13.5t96 -44.5t58.5 -81.5t20 -124.5q0 -75 -20 -125t-58.5 -81t-96 -44t-132.5 -13
t-132.5 13t-96.5 44t-59 81t-20 125z" />
    <glyph glyph-name="p" unicode="p" horiz-adv-x="723" 
d="M198 502v-85q31 51 86 74.5t134 23.5q63 0 112.5 -14.5t83 -46.5t51.5 -82t18 -121t-17.5 -120.5t-51.5 -81.5t-83.5 -46.5t-112.5 -14.5q-77 0 -130.5 21t-85.5 68v-277h-133v702h129zM549 284q0 77 -44.5 108t-129.5 31t-128 -29.5t-45 -102.5v-71q0 -76 44 -108
t129 -32t129.5 30.5t44.5 109.5v64z" />
    <glyph glyph-name="q" unicode="q" horiz-adv-x="721" 
d="M39 249q0 71 18.5 121.5t54 82.5t86 47t115.5 15q76 0 129 -23t83 -73v83h129v-702h-133v279q-60 -91 -208 -91q-64 0 -114.5 14t-86 45.5t-54.5 81t-19 120.5zM521 291q-2 72 -46.5 102t-126.5 30q-85 0 -129.5 -32t-44.5 -108v-65q0 -77 45.5 -107.5t128.5 -30.5
q85 0 129 32t44 108v71z" />
    <glyph glyph-name="r" unicode="r" horiz-adv-x="470" 
d="M198 502v-101q20 48 62 74.5t108 26.5h84v-111h-103q-77 0 -112 -29t-35 -98v-264h-133v502h129z" />
    <glyph glyph-name="s" unicode="s" horiz-adv-x="634" 
d="M169 156q7 -48 45 -65.5t108 -17.5q75 0 110 16t35 53q0 25 -18 37.5t-47.5 19t-67.5 9t-77 6t-77 11t-67.5 23.5t-47.5 43.5t-18 71.5q0 78 70 115.5t197 37.5q128 0 195 -37t75 -120h-134q-6 43 -42 57.5t-96 14.5q-64 0 -99 -15t-35 -50q0 -31 31 -44t78 -18.5
t101 -9.5t101 -17.5t78 -43.5t31 -86q0 -85 -71.5 -121.5t-205.5 -36.5q-136 0 -206.5 37.5t-79.5 129.5h134z" />
    <glyph glyph-name="t" unicode="t" horiz-adv-x="424" 
d="M21 502h67v155h133v-155h179v-98h-179v-238q0 -35 17 -51.5t59 -16.5h103v-98h-158q-82 0 -118 35t-36 114v255h-67v98z" />
    <glyph glyph-name="u" unicode="u" horiz-adv-x="698" 
d="M63 502h133v-306q0 -68 36 -91.5t108 -23.5q33 0 61.5 6t49.5 20t33 36.5t12 56.5v302h133v-502h-130v86q-26 -51 -82.5 -74.5t-130.5 -23.5q-53 0 -94.5 10t-70 33.5t-43.5 61.5t-15 94v315z" />
    <glyph glyph-name="v" unicode="v" horiz-adv-x="635" 
d="M629 502l-231 -502h-156l-237 502h137l185 -398l180 398h122z" />
    <glyph glyph-name="w" unicode="w" horiz-adv-x="915" 
d="M454 398l-125 -398h-152l-167 502h127l128 -396l125 396h147l126 -393l128 393h114l-166 -502h-156z" />
    <glyph glyph-name="x" unicode="x" horiz-adv-x="629" 
d="M308 182l-164 -182h-138l229 253l-225 249h153l156 -171l157 171h138l-222 -243l232 -259h-153z" />
    <glyph glyph-name="y" unicode="y" horiz-adv-x="637" 
d="M144 502l186 -376l180 376h122l-272 -559q-19 -40 -38 -67.5t-42.5 -44t-52.5 -24t-69 -7.5h-80v97h66q22 0 38.5 3t29 10.5t22 21t19.5 34.5l12 25l-260 511h139z" />
    <glyph glyph-name="z" unicode="z" horiz-adv-x="595" 
d="M382 404h-339v98h502v-97l-344 -307h361v-98h-524v97z" />
    <glyph glyph-name="ordfeminine" unicode="&#xaa;" horiz-adv-x="587" 
d="M40 429q0 30 10 54t32 41.5t57.5 27.5t86.5 13l191 8v22q0 44 -28.5 64.5t-93.5 20.5q-54 0 -85 -13t-39 -48h-116q9 67 67.5 102t173.5 35q233 0 233 -160v-285h-108v79q-26 -43 -77.5 -66.5t-123.5 -23.5q-91 0 -135.5 34t-44.5 95zM252 377q32 0 62 6.5t53 21.5
t36.5 38t13.5 56v12l-172 -8q-48 -2 -70 -15.5t-22 -43.5v-8q0 -28 22 -43.5t77 -15.5z" />
    <glyph glyph-name="ordmasculine" unicode="&#xba;" horiz-adv-x="608" 
d="M455 556q0 65 -37 91t-113 26q-78 0 -114.5 -27t-36.5 -90v-51q0 -67 37 -94.5t114 -27.5t113.5 28.5t36.5 94.5v50zM39 531q0 62 17.5 105t51.5 69.5t83.5 38.5t113.5 12t113 -12t83 -39t51.5 -70t17.5 -105q0 -64 -17.5 -108t-51.5 -71t-83 -39t-113 -12t-113.5 12
t-83.5 39.5t-51.5 71.5t-17.5 108z" />
    <glyph glyph-name="uni0430" unicode="&#x430;" horiz-adv-x="671" 
d="M41 138q0 71 49.5 110.5t168.5 44.5l217 8v16q0 60 -34.5 85t-106.5 25q-63 0 -98 -16.5t-45 -57.5h-133q12 81 79 121.5t196 40.5q139 0 206.5 -47.5t67.5 -150.5v-317h-127v86q-29 -47 -87 -72.5t-145 -25.5q-110 0 -159 40t-49 110zM289 75q39 0 73.5 7.5t59.5 23
t39.5 41t14.5 61.5v20l-188 -7q-59 -3 -86 -18t-27 -51v-9q0 -35 27 -51.5t87 -16.5z" />
    <glyph glyph-name="uni0431" unicode="&#x431;" horiz-adv-x="707" 
d="M52 282q0 131 18 216t59.5 135t109.5 71t169 24q48 1 83.5 2t61.5 2t44.5 3t30.5 4v-108q-12 -2 -29.5 -3.5t-43 -3t-60.5 -2.5t-82 -2q-69 -1 -114 -11.5t-72.5 -36t-40.5 -70t-17 -113.5q31 53 88.5 80.5t145.5 27.5q129 0 196.5 -58t67.5 -193q0 -137 -76.5 -197.5
t-231.5 -60.5q-76 0 -133.5 15t-96 49.5t-58 91t-19.5 138.5zM533 266q0 77 -42.5 108t-131.5 31q-87 0 -130.5 -31t-43.5 -108v-43q0 -79 43 -111t131 -32q89 0 131.5 32t42.5 111v43z" />
    <glyph glyph-name="uni0432" unicode="&#x432;" horiz-adv-x="662" 
d="M421 502q98 0 139.5 -33.5t41.5 -89.5q0 -39 -21.5 -70t-77.5 -44q33 -6 56 -18t37 -28t20 -36t6 -41q0 -72 -43 -107t-137 -35h-373v502h352zM487 163q0 29 -19.5 44t-61.5 15h-206v-139h206q42 0 61.5 14.5t19.5 46.5v19zM470 367q0 25 -15 39t-55 14h-200v-125h200
q41 0 55.5 16t14.5 41v15z" />
    <glyph glyph-name="uni0433" unicode="&#x433;" horiz-adv-x="518" 
d="M502 502v-98h-300v-404h-133v502h433z" />
    <glyph glyph-name="uni0434" unicode="&#x434;" horiz-adv-x="727" 
d="M10 97h61q46 76 46 239v166h508v-404h82v-238h-123v140h-451v-140h-123v237zM238 404v-68q0 -83 -10.5 -142t-29.5 -96h294v306h-254z" />
    <glyph glyph-name="uni0435" unicode="&#x435;" horiz-adv-x="661" 
d="M40 251q0 140 75.5 202t215.5 62q70 0 124 -13.5t91.5 -43.5t57 -77t19.5 -114v-28h-452v-20q0 -75 40.5 -109t119.5 -34q68 0 106 18.5t51 59.5h131q-21 -87 -94 -126.5t-194 -39.5q-70 0 -124.5 14.5t-91.5 46t-56 81.5t-19 121zM331 428q-71 0 -113.5 -27t-46.5 -91
h321q-3 64 -42.5 91t-118.5 27z" />
    <glyph glyph-name="uni0451" unicode="&#x451;" horiz-adv-x="661" 
d="M40 251q0 140 75.5 202t215.5 62q70 0 124 -13.5t91.5 -43.5t57 -77t19.5 -114v-28h-452v-20q0 -75 40.5 -109t119.5 -34q68 0 106 18.5t51 59.5h131q-21 -87 -94 -126.5t-194 -39.5q-70 0 -124.5 14.5t-91.5 46t-56 81.5t-19 121zM331 428q-71 0 -113.5 -27t-46.5 -91
h321q-3 64 -42.5 91t-118.5 27zM140 660q0 64 73 64q74 0 74 -64q0 -65 -74 -65q-73 0 -73 65zM375 660q0 64 73 64q35 0 54.5 -16t19.5 -48t-19.5 -48.5t-54.5 -16.5q-73 0 -73 65z" />
    <glyph glyph-name="uni0436" unicode="&#x436;" horiz-adv-x="928" 
d="M906 502l-203 -239l224 -263h-155l-175 205h-68v-205h-133v205h-69l-174 -205h-153l220 259l-206 243h148l169 -200h65v200h133v-200h65l169 200h143z" />
    <glyph glyph-name="uni0437" unicode="&#x437;" horiz-adv-x="636" 
d="M163 151q5 -42 45 -60t110 -18q76 0 110 15.5t34 53.5v14q0 32 -27.5 48t-86.5 16h-113v81h109q57 0 81.5 14t24.5 44v13q0 31 -30 44t-101 13q-72 0 -107.5 -16.5t-42.5 -53.5h-134q4 42 26 72t59 48.5t87.5 27t110.5 8.5q128 0 196.5 -33t68.5 -106q0 -38 -22 -66.5
t-82 -42.5q59 -13 88 -44.5t29 -77.5q0 -81 -68 -119t-210 -38q-133 0 -207 37.5t-82 125.5h134z" />
    <glyph glyph-name="uni0438" unicode="&#x438;" horiz-adv-x="704" 
d="M201 502v-364l288 364h146v-502h-132v364l-287 -364h-147v502h132z" />
    <glyph glyph-name="uni0439" unicode="&#x439;" horiz-adv-x="704" 
d="M201 502v-364l288 364h146v-502h-132v364l-287 -364h-147v502h132zM266 745q0 -49 19.5 -71t63.5 -22q43 0 63.5 22t20.5 71h108q-3 -167 -192 -167q-188 0 -191 167h108z" />
    <glyph glyph-name="uni043A" unicode="&#x43a;" horiz-adv-x="641" 
d="M622 502l-231 -239l257 -263h-166l-200 205h-80v-205h-133v502h133v-199h77l193 199h150z" />
    <glyph glyph-name="uni043B" unicode="&#x43b;" horiz-adv-x="674" 
d="M17 111h14q25 0 41.5 7t26.5 26t14.5 52.5t4.5 87.5v218h487v-502h-133v404h-232v-123q0 -83 -9.5 -137t-32 -86t-60 -45t-93.5 -13h-28v111z" />
    <glyph glyph-name="uni043C" unicode="&#x43c;" horiz-adv-x="852" 
d="M188 408v-408h-119v502h198l162 -373l163 373h191v-502h-131v406l-167 -382h-130z" />
    <glyph glyph-name="uni043D" unicode="&#x43d;" horiz-adv-x="694" 
d="M202 502v-198h290v198h133v-502h-133v206h-290v-206h-133v502h133z" />
    <glyph glyph-name="uni043E" unicode="&#x43e;" horiz-adv-x="695" 
d="M521 283q0 77 -44 108.5t-129 31.5q-86 0 -130 -31.5t-44 -108.5v-62q0 -77 44 -109t130 -32t129.5 32t43.5 110v61zM40 251q0 74 20 124.5t59 81.5t96.5 44.5t132.5 13.5t132.5 -13.5t96 -44.5t58.5 -81.5t20 -124.5q0 -75 -20 -125t-58.5 -81t-96 -44t-132.5 -13
t-132.5 13t-96.5 44t-59 81t-20 125z" />
    <glyph glyph-name="uni043F" unicode="&#x43f;" horiz-adv-x="683" 
d="M614 502v-502h-133v404h-279v-404h-133v502h545z" />
    <glyph glyph-name="uni0440" unicode="&#x440;" horiz-adv-x="723" 
d="M198 502v-85q31 51 86 74.5t134 23.5q63 0 112.5 -14.5t83 -46.5t51.5 -82t18 -121t-17.5 -120.5t-51.5 -81.5t-83.5 -46.5t-112.5 -14.5q-77 0 -130.5 21t-85.5 68v-277h-133v702h129zM549 284q0 77 -44.5 108t-129.5 31t-128 -29.5t-45 -102.5v-71q0 -76 44 -108
t129 -32t129.5 30.5t44.5 109.5v64z" />
    <glyph glyph-name="uni0441" unicode="&#x441;" horiz-adv-x="647" 
d="M40 251q0 71 18 121t54 82t91.5 46.5t130.5 14.5q124 0 195.5 -39.5t83.5 -128.5h-133q-12 40 -45 58t-101 18q-83 0 -121.5 -31t-38.5 -106v-68q0 -78 41 -108t119 -30q70 0 103 19.5t45 55.5h133q-14 -84 -82.5 -125.5t-198.5 -41.5q-73 0 -128 13t-92 44t-55.5 81
t-18.5 125z" />
    <glyph glyph-name="uni0442" unicode="&#x442;" horiz-adv-x="581" 
d="M16 404v98h548v-98h-207v-404h-133v404h-208z" />
    <glyph glyph-name="uni0443" unicode="&#x443;" horiz-adv-x="637" 
d="M144 502l186 -376l180 376h122l-272 -559q-19 -40 -38 -67.5t-42.5 -44t-52.5 -24t-69 -7.5h-80v97h66q22 0 38.5 3t29 10.5t22 21t19.5 34.5l12 25l-260 511h139z" />
    <glyph glyph-name="uni045E" unicode="&#x45e;" horiz-adv-x="637" 
d="M144 502l186 -376l180 376h122l-272 -559q-19 -40 -38 -67.5t-42.5 -44t-52.5 -24t-69 -7.5h-80v97h66q22 0 38.5 3t29 10.5t22 21t19.5 34.5l12 25l-260 511h139zM241 745q0 -49 19.5 -71t63.5 -22q43 0 63.5 22t20.5 71h108q-3 -167 -192 -167q-188 0 -191 167h108z
" />
    <glyph glyph-name="uni0444" unicode="&#x444;" horiz-adv-x="895" 
d="M381 -12q-83 0 -146.5 14t-107 45.5t-66 81.5t-22.5 122q0 71 22.5 121t66 82t107 46.5t146.5 14.5v215h133v-215q83 0 146.5 -14.5t107 -46.5t66 -82t22.5 -121q0 -72 -22.5 -122t-66 -81.5t-107 -45.5t-146.5 -14v-188h-133v188zM381 422q-102 0 -155 -30.5t-53 -110.5
v-57q0 -77 52 -110.5t156 -33.5v342zM722 282q0 79 -52.5 109.5t-155.5 30.5v-342q103 0 155.5 33.5t52.5 110.5v58z" />
    <glyph glyph-name="uni0445" unicode="&#x445;" horiz-adv-x="629" 
d="M308 182l-164 -182h-138l229 253l-225 249h153l156 -171l157 171h138l-222 -243l232 -259h-153z" />
    <glyph glyph-name="uni0446" unicode="&#x446;" horiz-adv-x="716" 
d="M573 0h-504v502h133v-404h279v404h133v-404h82v-238h-123v140z" />
    <glyph glyph-name="uni0447" unicode="&#x447;" horiz-adv-x="651" 
d="M449 193q-32 -5 -72.5 -7.5t-80.5 -2.5q-69 0 -118 11t-80 35.5t-45 63.5t-14 94v115h133v-109q0 -33 8.5 -55t26.5 -34.5t47 -17.5t70 -5q72 0 125 9v212h133v-502h-133v193v0z" />
    <glyph glyph-name="uni0448" unicode="&#x448;" horiz-adv-x="969" 
d="M202 502v-404h216v404h133v-404h216v404h133v-502h-831v502h133z" />
    <glyph glyph-name="uni0449" unicode="&#x449;" horiz-adv-x="1003" 
d="M202 502v-404h216v404h133v-404h216v404h133v-404h87v-238h-123v140h-795v502h133z" />
    <glyph glyph-name="uni044A" unicode="&#x44a;" horiz-adv-x="730" 
d="M160 404h-143v98h276v-160h223q94 0 140.5 -43t46.5 -125q0 -85 -46.5 -129.5t-140.5 -44.5h-356v404zM569 186q0 32 -19.5 49t-62.5 17h-194v-162h194q43 0 62.5 19t19.5 54v23z" />
    <glyph glyph-name="uni044B" unicode="&#x44b;" horiz-adv-x="874" 
d="M69 502h133v-160h223q94 0 140.5 -43t46.5 -125q0 -85 -46.5 -129.5t-140.5 -44.5h-356v502zM478 186q0 32 -19.5 49t-62.5 17h-194v-162h194q43 0 62.5 19t19.5 54v23zM806 502v-502h-133v502h133z" />
    <glyph glyph-name="uni044C" unicode="&#x44c;" horiz-adv-x="639" 
d="M69 502h133v-160h223q94 0 140.5 -43t46.5 -125q0 -85 -46.5 -129.5t-140.5 -44.5h-356v502zM478 186q0 32 -19.5 49t-62.5 17h-194v-162h194q43 0 62.5 19t19.5 54v23z" />
    <glyph glyph-name="uni044D" unicode="&#x44d;" horiz-adv-x="650" 
d="M235 294h244q-1 66 -38.5 98t-121.5 32q-75 0 -108.5 -18.5t-44.5 -56.5h-134q27 166 288 166q72 0 126 -14.5t90.5 -46t55 -82t18.5 -122.5t-18.5 -121.5t-55 -81t-90.5 -45.5t-126 -14q-128 0 -202.5 40.5t-88.5 128.5h134q5 -18 15.5 -32.5t28.5 -24.5t45.5 -15.5
t66.5 -5.5q83 0 121.5 32.5t38.5 101.5v1h-244v80z" />
    <glyph glyph-name="uni044E" unicode="&#x44e;" horiz-adv-x="938" 
d="M202 502v-197h96q7 59 30 99t61 65t90 35.5t118 10.5q73 0 129 -13.5t94 -44t58 -81t20 -125.5t-20 -125.5t-58 -81t-94 -43.5t-129 -13q-68 0 -121 11t-91 37t-60.5 68t-27.5 105h-95v-209h-133v502h133zM764 282q0 80 -43 110.5t-124 30.5q-82 0 -125 -30.5t-43 -110.5
v-62q0 -40 11 -66.5t32 -43t52.5 -23.5t72.5 -7q40 0 71.5 7t52.5 23.5t32 43t11 66.5v62z" />
    <glyph glyph-name="uni044F" unicode="&#x44f;" horiz-adv-x="658" 
d="M288 174l-112 -174h-142l125 192q-117 30 -117 146q0 78 47.5 121t144.5 43h355v-502h-133v174h-168zM254 414q-37 0 -57.5 -16.5t-20.5 -48.5v-24q0 -30 20 -46t58 -16h202v151h-202z" />
    <glyph glyph-name="uni0454" unicode="&#x454;" horiz-adv-x="651" 
d="M40 250q0 73 18 123.5t55 82t92 45.5t129 14q131 0 202 -41t84 -127h-133q-13 39 -46.5 57.5t-104.5 18.5q-81 0 -122 -29t-43 -99h242v-80h-242q0 -38 10.5 -64t31 -42t51 -22.5t71.5 -6.5q37 0 63 4.5t44 14t29 23.5t18 33h133q-17 -85 -86 -126t-202 -41
q-74 0 -129 13t-91.5 44t-55 81t-18.5 124z" />
    <glyph glyph-name="uni0456" unicode="&#x456;" horiz-adv-x="271" 
d="M57 660q0 32 20 49t58 17q79 0 79 -66q0 -67 -79 -67q-38 0 -58 17t-20 50zM202 502v-502h-133v502h133z" />
    <glyph glyph-name="uni0457" unicode="&#x457;" horiz-adv-x="271" 
d="M15 660q0 66 56 66q57 0 57 -66q0 -67 -57 -67q-56 0 -56 67zM142 660q0 66 57 66q56 0 56 -66q0 -67 -56 -67q-57 0 -57 67zM202 502v-502h-133v502h133z" />
    <glyph glyph-name="uni0458" unicode="&#x458;" horiz-adv-x="271" 
d="M57 660q0 32 20.5 49t57.5 17q80 0 80 -66q0 -67 -80 -67q-37 0 -57.5 17t-20.5 50zM5 -102q35 0 49.5 17.5t14.5 51.5v535h133v-549q0 -38 -7.5 -67t-25.5 -48t-48 -28.5t-74 -9.5h-94v98h52z" />
    <glyph glyph-name="uni0491" unicode="&#x491;" horiz-adv-x="518" 
d="M380 502v140h122v-238h-300v-404h-133v502h311z" />
    <glyph glyph-name="uni02BC" unicode="&#x2bc;" horiz-adv-x="265" 
d="M71 494q34 0 49 12.5t15 41.5v12h-5q-79 0 -79 72q0 71 81 71q42 0 62 -18t20 -58v-67q0 -73 -33.5 -104.5t-109.5 -31.5v70v0z" />
    <glyph glyph-name="zero" unicode="0" horiz-adv-x="807" 
d="M616 383q0 110 -51.5 160t-160.5 50q-110 0 -161.5 -49.5t-51.5 -160.5v-70q0 -113 51 -164.5t162 -51.5q110 -1 161 51t51 165v70zM49 348q0 96 24.5 163.5t70 110t111.5 61.5t149 19q82 0 148 -19t111.5 -61.5t70 -110t24.5 -163.5q0 -97 -24.5 -165.5t-70 -111.5
t-111.5 -63t-148 -20q-83 0 -149 20t-111.5 63t-70 111.5t-24.5 165.5z" />
    <glyph glyph-name="one" unicode="1" horiz-adv-x="413" 
d="M192 690h140v-690h-140v567l-162 -106v125z" />
    <glyph glyph-name="two" unicode="2" horiz-adv-x="711" 
d="M50 56q0 67 20 113.5t53 78t74.5 51t85.5 34t85.5 26.5t74.5 27.5t53 38.5t20 59v21q0 51 -40.5 70.5t-111.5 19.5q-81 0 -120.5 -24t-47.5 -88h-141q4 62 27.5 104t63 67.5t95 36.5t124.5 11t123.5 -11t92 -35t57 -63.5t19.5 -96.5q0 -55 -19 -92t-50.5 -62.5
t-71.5 -41.5t-82.5 -28.5t-84 -24.5t-74.5 -29t-54.5 -42t-25.5 -64h462v-112h-607v56v0z" />
    <glyph glyph-name="three" unicode="3" horiz-adv-x="725" 
d="M180 200q9 -55 53.5 -80t130.5 -25q93 0 133 24t40 72v24q0 48 -44 70t-125 22h-77v102h74q73 0 109 19.5t36 62.5v24q0 45 -36.5 62.5t-108.5 17.5q-71 0 -112 -19.5t-51 -72.5h-143q11 107 90 153t214 46t210 -42.5t75 -139.5q0 -61 -32.5 -99.5t-95.5 -55.5
q72 -16 113.5 -55.5t41.5 -110.5q0 -111 -79 -161t-233 -50q-157 0 -237.5 51t-89.5 161h144z" />
    <glyph glyph-name="three.alt" horiz-adv-x="718" 
d="M77 690h564v-94l-229 -183q133 -7 195 -55.5t62 -146.5q0 -118 -77 -170.5t-228 -52.5t-235.5 48.5t-98.5 163.5h144q12 -57 57 -81t132 -24q172 0 172 103v26q0 54 -43.5 77t-131.5 23h-98v83l214 170h-399v113z" />
    <glyph glyph-name="four" unicode="4" horiz-adv-x="763" 
d="M415 690h196v-418h123v-105h-123v-167h-140v167h-446v88zM471 272v327l-292 -327h292z" />
    <glyph glyph-name="four.alt" horiz-adv-x="756" 
d="M605 473v-200h123v-106h-123v-167h-139v167h-440v88l342 435h142l-325 -417h281v200h139z" />
    <glyph glyph-name="five" unicode="5" horiz-adv-x="719" 
d="M189 183q13 -46 56.5 -66.5t119.5 -20.5q81 0 123.5 27t42.5 90v28q0 60 -42.5 87.5t-122.5 27.5q-59 0 -103.5 -14t-74.5 -46l-121 24l35 370h529v-110h-422l-19 -195q30 28 82 45.5t121 17.5q143 0 211 -55.5t68 -166.5q0 -119 -75 -178.5t-232 -59.5q-148 0 -229 47.5
t-92 147.5h145z" />
    <glyph glyph-name="six" unicode="6" horiz-adv-x="763" 
d="M50 309q0 113 24 188.5t69 121t110 64.5t146 19q144 0 218 -49.5t83 -133.5h-139q-12 38 -50 57t-116 19q-51 0 -88.5 -11t-62.5 -38t-38.5 -72.5t-14.5 -115.5q67 85 237 85q140 0 215.5 -50.5t75.5 -167.5q0 -121 -82 -179t-245 -58q-88 0 -152.5 17.5t-106.5 55.5
t-62.5 99.5t-20.5 148.5zM579 236q0 62 -45 88t-142 26q-98 0 -145.5 -29t-47.5 -95q0 -68 44.5 -100.5t148.5 -32.5q98 0 142.5 27t44.5 88v28z" />
    <glyph glyph-name="seven" unicode="7" horiz-adv-x="625" 
d="M23 690h578v-96l-344 -594h-144l337 576h-427v114z" />
    <glyph glyph-name="eight" unicode="8" horiz-adv-x="766" 
d="M47 194q0 72 43 115.5t125 59.5q-75 14 -107.5 53.5t-32.5 98.5q0 51 23 85.5t63.5 56t97 30.5t124.5 9q67 0 124 -9t98 -30.5t64 -56t23 -85.5q0 -59 -32 -98.5t-107 -53.5q81 -16 123.5 -59.5t42.5 -115.5q0 -56 -22 -95t-64.5 -64t-105.5 -36t-144 -11
q-82 0 -144.5 11t-105 36t-64.5 64t-22 95zM579 212q0 55 -47.5 79t-148.5 24q-100 0 -148 -23.5t-48 -78.5v-23q0 -54 49 -77t147 -23q99 0 147.5 23t48.5 77v22zM552 511q0 46 -37.5 67.5t-130.5 21.5q-94 0 -131.5 -21t-37.5 -68v-19q0 -43 37.5 -64.5t131.5 -21.5
q92 0 130 21.5t38 64.5v19z" />
    <glyph glyph-name="nine" unicode="9" horiz-adv-x="763" 
d="M713 381q0 -113 -24 -188.5t-69 -121t-110 -64.5t-146 -19q-144 0 -218 49.5t-83 133.5h139q12 -38 50 -57t116 -19q51 0 88.5 11t62.5 38t38 72.5t15 115.5q-67 -85 -237 -85q-140 0 -215.5 50.5t-75.5 167.5q0 121 82 179t245 58q88 0 152.5 -17.5t106.5 -55.5
t62.5 -99.5t20.5 -148.5zM184 454q0 -62 45 -88t142 -26q98 0 145.5 29t47.5 95q0 68 -44.5 100.5t-148.5 32.5q-98 0 -142.5 -27t-44.5 -88v-28z" />
    <glyph glyph-name="zero.tab" 
d="M591 385q0 110 -46.5 159t-149.5 49t-149.5 -49t-46.5 -159v-74q0 -111 46.5 -162.5t149.5 -51.5t149.5 51.5t46.5 162.5v74zM58 348q0 96 22.5 163t66 109.5t106 62t142.5 19.5t142.5 -19.5t106 -62t66 -109.5t22.5 -163q0 -97 -22.5 -165t-66 -111.5t-106 -63.5
t-142.5 -20t-142.5 20t-106 63.5t-66 111.5t-22.5 165z" />
    <glyph glyph-name="one.tab" 
d="M111 114h249v455l-246 -119v123l246 117h140v-576h216v-114h-605v114z" />
    <glyph glyph-name="two.tab" 
d="M81 52q0 72 21 120.5t54.5 81.5t77 53t89 33.5t89 24.5t77 25.5t54.5 36.5t21 57v21q0 51 -42.5 70.5t-120.5 19.5q-85 0 -126 -24.5t-51 -89.5h-140q5 62 29 104.5t64.5 68.5t97 37t126.5 11q73 0 129.5 -11t95.5 -35t59 -63.5t20 -96.5q0 -55 -19.5 -92t-51.5 -61
t-73.5 -39.5t-84.5 -27t-85 -23.5t-76 -29.5t-56 -44t-26 -67.5h471v-112h-623v52v0z" />
    <glyph glyph-name="three.tab" 
d="M205 197q8 -53 55.5 -77.5t138.5 -24.5q94 0 136 24.5t42 73.5v21q0 50 -46 71.5t-129 21.5h-98v102h95q74 0 112.5 20t38.5 65v20q0 46 -38 63.5t-113 17.5t-117.5 -18.5t-53.5 -70.5h-143q5 54 29 91.5t64.5 60.5t96 33.5t123.5 10.5q137 0 213.5 -42t76.5 -139
q0 -61 -34.5 -100t-99.5 -56q75 -16 118.5 -55.5t43.5 -109.5q0 -112 -81 -162t-236 -50q-160 0 -244.5 50t-92.5 159h143z" />
    <glyph glyph-name="three.tab.alt" 
d="M205 197q11 -54 57.5 -78t137.5 -24q88 0 133.5 24.5t45.5 79.5v24q0 54 -45.5 77.5t-138.5 23.5h-98v83l212 170h-394v113h566v-94l-228 -184q139 -8 200.5 -57t61.5 -144q0 -117 -80 -170t-235 -53q-153 0 -239 48t-99 161h143z" />
    <glyph glyph-name="four.tab" 
d="M416 690h193v-418h121v-105h-121v-167h-136v167h-421v88zM473 272v321l-267 -321h267z" />
    <glyph glyph-name="four.tab.alt" 
d="M608 467v-195h121v-105h-121v-167h-136v167h-414v88l315 435h143l-302 -418h258v195h136z" />
    <glyph glyph-name="five.tab" 
d="M217 180q13 -45 58 -64.5t126 -19.5q84 0 129.5 28t45.5 91v24q0 61 -44.5 88.5t-129.5 27.5q-58 0 -105 -14.5t-79 -46.5l-121 24l36 372h543v-110h-437l-18 -190q32 26 84.5 42t123.5 16q287 0 287 -222q0 -119 -77.5 -178.5t-237.5 -59.5q-152 0 -235 47t-94 145h145z
" />
    <glyph glyph-name="six.tab" 
d="M72 323q0 105 24 177.5t68.5 117.5t107.5 64.5t143 19.5q141 0 211 -47t81 -131h-140q-10 35 -46.5 53t-108.5 18q-96 0 -147 -53.5t-52 -181.5q62 83 228 83q135 0 210 -51t75 -168q0 -121 -80.5 -178.5t-238.5 -57.5q-87 0 -150 17.5t-104.5 57.5t-61 104t-19.5 156z
M585 234q0 63 -43 89.5t-135 26.5q-94 0 -139.5 -29t-45.5 -93q0 -67 43.5 -101t141.5 -34q92 0 135 27.5t43 89.5v24z" />
    <glyph glyph-name="seven.tab" 
d="M87 690h619v-96l-380 -594h-145l370 576h-464v114z" />
    <glyph glyph-name="eight.tab" 
d="M67 195q0 142 158 174q-72 14 -102.5 53t-30.5 96q0 51 22.5 86.5t62.5 57t95.5 31t122.5 9.5q66 0 122 -9.5t96 -31.5t62.5 -57t22.5 -86q0 -57 -31.5 -96t-104.5 -53q80 -16 121 -59.5t41 -114.5q0 -112 -84.5 -159.5t-244.5 -47.5q-161 0 -244.5 47.5t-83.5 159.5z
M584 213q0 54 -47 78t-142 24t-142 -23.5t-47 -77.5v-25q0 -53 47.5 -76t141.5 -23q93 0 141 22.5t48 76.5v24zM558 512q0 46 -37.5 67t-125.5 21t-125.5 -21t-37.5 -67v-21q0 -42 37.5 -64t125.5 -21q87 0 125 21.5t38 63.5v21z" />
    <glyph glyph-name="nine.tab" 
d="M717 367q0 -105 -24 -177.5t-68.5 -117.5t-108 -64.5t-142.5 -19.5q-141 0 -211 47t-81 131h140q10 -35 46.5 -53t108.5 -18q48 0 85 12.5t62 40.5t38 73t14 109q-62 -83 -228 -83q-135 0 -210 51t-75 168q0 121 80.5 178.5t238.5 57.5q87 0 150 -18t104.5 -57.5
t61 -103.5t19.5 -156zM204 456q0 -63 43 -89.5t135 -26.5q94 0 139.5 29t45.5 93q0 67 -43.5 101t-141.5 34q-92 0 -135 -27.5t-43 -89.5v-24z" />
    <glyph glyph-name="onequarter" unicode="&#xbc;" horiz-adv-x="1028" 
d="M695 690h123l-573 -690h-122zM147 690h108v-425h-108v327l-116 -75v98zM759 425h160v-257h78v-82h-78v-86h-107v86h-294v72zM812 168v192l-173 -192h173z" />
    <glyph glyph-name="onehalf" unicode="&#xbd;" horiz-adv-x="1080" 
d="M694 690h123l-573 -690h-122zM147 690h108v-425h-108v327l-116 -75v98zM613 40q0 59 23 93.5t57.5 55t75 30.5t75 18.5t57.5 21t23 37.5v10q0 27 -24.5 38t-67.5 11q-49 0 -73 -14t-31 -44h-110q8 74 63 107t151 33q44 0 81 -6.5t64 -22t42 -40.5t15 -61
q0 -44 -21.5 -69.5t-54 -40.5t-71.5 -23t-73.5 -18.5t-60 -26.5t-31.5 -46h311v-83h-420v40v0z" />
    <glyph glyph-name="threequarters" unicode="&#xbe;" horiz-adv-x="1177" 
d="M854 690h123l-573 -690h-122zM908 425h160v-257h78v-82h-78v-86h-107v86h-294v72zM961 168v192l-173 -192h173zM146 392q9 -30 35.5 -44t83.5 -14q51 0 76.5 11t25.5 38v13q0 26 -29 37t-81 11h-56v77h57q48 0 71.5 10.5t23.5 35.5v10q0 24 -22 34t-69 10q-49 0 -74 -13
t-31 -38h-109q8 68 65 100t150 32q45 0 82 -6.5t63.5 -20.5t41 -35.5t14.5 -52.5q0 -40 -24 -64t-69 -35q49 -10 78.5 -33.5t29.5 -68.5q0 -71 -57.5 -102t-156.5 -31q-103 0 -162 31.5t-66 107.5h109z" />
    <glyph glyph-name="onethird" unicode="&#x2153;" horiz-adv-x="1091" 
d="M696 690h123l-573 -690h-122zM147 690h108v-425h-108v327l-116 -75v98zM716 127q9 -30 35.5 -44t83.5 -14q51 0 76.5 11t25.5 38v13q0 26 -29 37t-81 11h-56v77h57q48 0 71.5 10.5t23.5 35.5v10q0 24 -22 34t-69 10q-49 0 -74 -13t-31 -38h-109q8 68 65 100t150 32
q45 0 82 -6.5t63.5 -20.5t41 -35.5t14.5 -52.5q0 -40 -24 -64t-69 -35q49 -10 78.5 -33.5t29.5 -68.5q0 -71 -57.5 -102t-156.5 -31q-103 0 -162 31.5t-66 107.5h109z" />
    <glyph glyph-name="twothirds" unicode="&#x2154;" horiz-adv-x="1268" 
d="M878 690h123l-573 -690h-122zM892 127q9 -30 35.5 -44t83.5 -14q51 0 76.5 11t25.5 38v13q0 26 -29 37t-81 11h-56v77h57q48 0 71.5 10.5t23.5 35.5v10q0 24 -22 34t-69 10q-49 0 -74 -13t-31 -38h-109q8 68 65 100t150 32q45 0 82 -6.5t63.5 -20.5t41 -35.5t14.5 -52.5
q0 -40 -24 -64t-69 -35q49 -10 78.5 -33.5t29.5 -68.5q0 -71 -57.5 -102t-156.5 -31q-103 0 -162 31.5t-66 107.5h109zM45 305q0 59 23 93.5t57.5 55t75 30.5t75 18.5t57.5 21t23 37.5v10q0 27 -24.5 38t-67.5 11q-49 0 -73 -14t-31 -44h-110q8 74 63 107t151 33
q44 0 81 -6.5t64 -22t42 -40.5t15 -61q0 -44 -21.5 -69.5t-54 -40.5t-71.5 -23t-73.5 -18.5t-60 -26.5t-31.5 -46h311v-83h-420v40v0z" />
    <glyph glyph-name="oneeighth" unicode="&#x215b;" horiz-adv-x="1125" 
d="M696 690h123l-573 -690h-122zM147 690h108v-425h-108v327l-116 -75v98zM613 120q0 83 100 105q-43 11 -63.5 36t-20.5 58q0 34 16.5 56.5t45.5 36t69 19.5t88 6q47 0 87 -6t69 -19.5t45 -36t16 -56.5t-19.5 -58.5t-63.5 -35.5q48 -11 73.5 -37t25.5 -68q0 -72 -59.5 -102
t-173.5 -30q-115 0 -175 30t-60 102zM972 127q0 29 -30 42.5t-95 13.5q-63 0 -93.5 -13t-30.5 -42v-12q0 -29 31 -41.5t93 -12.5q63 0 94 12t31 41v12zM958 315q0 26 -25 37t-86 11q-60 0 -85.5 -11t-25.5 -37v-8q0 -25 26 -36.5t85 -11.5q60 0 85.5 12t25.5 36v8z" />
    <glyph glyph-name="threeeighths" unicode="&#x215c;" horiz-adv-x="1276" 
d="M854 690h123l-573 -690h-122zM147 392q9 -30 35.5 -44t83.5 -14q51 0 76.5 11t25.5 38v13q0 26 -29 37t-81 11h-56v77h57q48 0 71.5 10.5t23.5 35.5v10q0 24 -22 34t-69 10q-49 0 -74 -13t-31 -38h-109q8 68 65 100t150 32q45 0 82 -6.5t63.5 -20.5t41 -35.5t14.5 -52.5
q0 -40 -24 -64t-69 -35q49 -10 78.5 -33.5t29.5 -68.5q0 -71 -57.5 -102t-156.5 -31q-103 0 -162 31.5t-66 107.5h109zM766 120q0 83 100 105q-43 11 -63.5 36t-20.5 58q0 34 16.5 56.5t45.5 36t69 19.5t88 6q47 0 87 -6t69 -19.5t45 -36t16 -56.5t-19.5 -58.5t-63.5 -35.5
q48 -11 73.5 -37t25.5 -68q0 -72 -59.5 -102t-173.5 -30q-115 0 -175 30t-60 102zM1125 127q0 29 -30 42.5t-95 13.5q-63 0 -93.5 -13t-30.5 -42v-12q0 -29 31 -41.5t93 -12.5q63 0 94 12t31 41v12zM1111 315q0 26 -25 37t-86 11q-60 0 -85.5 -11t-25.5 -37v-8
q0 -25 26 -36.5t85 -11.5q60 0 85.5 12t25.5 36v8z" />
    <glyph glyph-name="fiveeighths" unicode="&#x215d;" horiz-adv-x="1278" 
d="M149 384q8 -26 34.5 -38.5t80.5 -12.5q59 0 84.5 14t25.5 49v13q0 35 -26.5 48t-84.5 13q-38 0 -67.5 -8t-47.5 -22l-95 17l22 233h383v-83h-301l-9 -99q22 15 57.5 25t80.5 10q93 0 145.5 -32.5t52.5 -106.5q0 -82 -56 -116.5t-163 -34.5q-103 0 -161 30.5t-67 100.5
h112zM854 690h123l-573 -690h-122zM766 120q0 83 100 105q-43 11 -63.5 36t-20.5 58q0 34 16.5 56.5t45.5 36t69 19.5t88 6q47 0 87 -6t69 -19.5t45 -36t16 -56.5t-19.5 -58.5t-63.5 -35.5q48 -11 73.5 -37t25.5 -68q0 -72 -59.5 -102t-173.5 -30q-115 0 -175 30t-60 102z
M1125 127q0 29 -30 42.5t-95 13.5q-63 0 -93.5 -13t-30.5 -42v-12q0 -29 31 -41.5t93 -12.5q63 0 94 12t31 41v12zM1111 315q0 26 -25 37t-86 11q-60 0 -85.5 -11t-25.5 -37v-8q0 -25 26 -36.5t85 -11.5q60 0 85.5 12t25.5 36v8z" />
    <glyph glyph-name="seveneighths" unicode="&#x215e;" horiz-adv-x="1145" 
d="M28 690h418v-70l-234 -355h-116l226 340h-294v85zM714 690h123l-573 -690h-122zM635 120q0 83 100 105q-43 11 -63.5 36t-20.5 58q0 34 16.5 56.5t45.5 36t69 19.5t88 6q47 0 87 -6t69 -19.5t45 -36t16 -56.5t-19.5 -58.5t-63.5 -35.5q48 -11 73.5 -37t25.5 -68
q0 -72 -59.5 -102t-173.5 -30q-115 0 -175 30t-60 102zM994 127q0 29 -30 42.5t-95 13.5q-63 0 -93.5 -13t-30.5 -42v-12q0 -29 31 -41.5t93 -12.5q63 0 94 12t31 41v12zM980 315q0 26 -25 37t-86 11q-60 0 -85.5 -11t-25.5 -37v-8q0 -25 26 -36.5t85 -11.5q60 0 85.5 12
t25.5 36v8z" />
    <glyph glyph-name="zero.den" horiz-adv-x="570" 
d="M285 73q66 0 100.5 28.5t34.5 89.5v45q0 63 -35 89.5t-100 26.5t-100 -26.5t-35 -89.5v-45q0 -62 34.5 -90t100.5 -28zM285 -12q-54 0 -99 12.5t-77.5 39.5t-50.5 70t-18 104t18 104t50.5 69t77.5 38t99 12t99 -12t77.5 -38t50.5 -69t18 -104t-18 -104t-50.5 -70
t-77.5 -39.5t-99 -12.5z" />
    <glyph glyph-name="one.den" horiz-adv-x="317" 
d="M143 425h108v-425h-108v327l-116 -75v98z" />
    <glyph glyph-name="two.den" horiz-adv-x="501" 
d="M38 40q0 59 23 93.5t57.5 55t75 30.5t75 18.5t57.5 21t23 37.5v10q0 27 -24.5 38t-67.5 11q-49 0 -73 -14t-31 -44h-110q8 74 63 107t151 33q44 0 81 -6.5t64 -22t42 -40.5t15 -61q0 -44 -21.5 -69.5t-54 -40.5t-71.5 -23t-73.5 -18.5t-60 -26.5t-31.5 -46h311v-83h-420
v40v0z" />
    <glyph glyph-name="three.den" horiz-adv-x="512" 
d="M141 127q9 -30 35.5 -44t83.5 -14q51 0 76.5 11t25.5 38v13q0 26 -29 37t-81 11h-56v77h57q48 0 71.5 10.5t23.5 35.5v10q0 24 -22 34t-69 10q-49 0 -74 -13t-31 -38h-109q8 68 65 100t150 32q45 0 82 -6.5t63.5 -20.5t41 -35.5t14.5 -52.5q0 -40 -24 -64t-69 -35
q49 -10 78.5 -33.5t29.5 -68.5q0 -71 -57.5 -102t-156.5 -31q-103 0 -162 31.5t-66 107.5h109z" />
    <glyph glyph-name="four.den" horiz-adv-x="531" 
d="M266 425h160v-257h78v-82h-78v-86h-107v86h-294v72zM319 168v192l-173 -192h173z" />
    <glyph glyph-name="five.den" horiz-adv-x="514" 
d="M144 119q8 -26 34.5 -38.5t80.5 -12.5q59 0 84.5 14t25.5 49v13q0 35 -26.5 48t-84.5 13q-38 0 -67.5 -8t-47.5 -22l-95 17l22 233h383v-83h-301l-9 -99q22 15 57.5 25t80.5 10q93 0 145.5 -32.5t52.5 -106.5q0 -82 -56 -116.5t-163 -34.5q-103 0 -161 30.5t-67 100.5
h112z" />
    <glyph glyph-name="six.den" horiz-adv-x="547" 
d="M40 201q0 68 17 113.5t48.5 72.5t76 38.5t98.5 11.5q106 0 159.5 -31.5t62.5 -86.5h-111q-17 38 -109 38q-71 0 -103.5 -27t-32.5 -95v-11q23 28 64.5 41t97.5 13q100 0 151.5 -32t51.5 -109q0 -81 -60 -115t-172 -34q-58 0 -102.5 9.5t-75 34t-46 65.5t-15.5 104z
M399 146q0 34 -30 47t-90 13q-69 0 -96 -16t-28 -52q0 -36 27 -54t96 -18q63 0 92 14.5t29 46.5v19z" />
    <glyph glyph-name="seven.den" horiz-adv-x="459" 
d="M22 425h418v-70l-234 -355h-116l226 340h-294v85z" />
    <glyph glyph-name="eight.den" horiz-adv-x="545" 
d="M38 120q0 83 100 105q-43 11 -63.5 36t-20.5 58q0 34 16.5 56.5t45.5 36t69 19.5t88 6q47 0 87 -6t69 -19.5t45 -36t16 -56.5t-19.5 -58.5t-63.5 -35.5q48 -11 73.5 -37t25.5 -68q0 -72 -59.5 -102t-173.5 -30q-115 0 -175 30t-60 102zM397 127q0 29 -30 42.5t-95 13.5
q-63 0 -93.5 -13t-30.5 -42v-12q0 -29 31 -41.5t93 -12.5q63 0 94 12t31 41v12zM383 315q0 26 -25 37t-86 11q-60 0 -85.5 -11t-25.5 -37v-8q0 -25 26 -36.5t85 -11.5q60 0 85.5 12t25.5 36v8z" />
    <glyph glyph-name="nine.den" horiz-adv-x="547" 
d="M507 224q0 -68 -17 -113.5t-48.5 -72.5t-76 -38.5t-98.5 -11.5q-106 0 -159.5 31.5t-62.5 86.5h111q17 -38 109 -38q71 0 103.5 27t32.5 95v11q-23 -28 -64.5 -41t-97.5 -13q-100 0 -151.5 32t-51.5 109q0 81 60 115t172 34q58 0 102.5 -9.5t75 -34t46 -65.5t15.5 -104z
M148 279q0 -34 30 -47t90 -13q69 0 96 16t28 52q0 36 -27 54t-96 18q-63 0 -92 -14.5t-29 -46.5v-19z" />
    <glyph glyph-name="zero.num" horiz-adv-x="570" 
d="M285 338q66 0 100.5 28.5t34.5 89.5v45q0 63 -35 89.5t-100 26.5t-100 -26.5t-35 -89.5v-45q0 -62 34.5 -90t100.5 -28zM285 253q-54 0 -99 12.5t-77.5 39.5t-50.5 70t-18 104t18 104t50.5 69t77.5 38t99 12t99 -12t77.5 -38t50.5 -69t18 -104t-18 -104t-50.5 -70
t-77.5 -39.5t-99 -12.5z" />
    <glyph glyph-name="one.num" horiz-adv-x="317" 
d="M143 690h108v-425h-108v327l-116 -75v98z" />
    <glyph glyph-name="two.num" horiz-adv-x="501" 
d="M38 305q0 59 23 93.5t57.5 55t75 30.5t75 18.5t57.5 21t23 37.5v10q0 27 -24.5 38t-67.5 11q-49 0 -73 -14t-31 -44h-110q8 74 63 107t151 33q44 0 81 -6.5t64 -22t42 -40.5t15 -61q0 -44 -21.5 -69.5t-54 -40.5t-71.5 -23t-73.5 -18.5t-60 -26.5t-31.5 -46h311v-83h-420
v40v0z" />
    <glyph glyph-name="three.num" horiz-adv-x="512" 
d="M141 392q9 -30 35.5 -44t83.5 -14q51 0 76.5 11t25.5 38v13q0 26 -29 37t-81 11h-56v77h57q48 0 71.5 10.5t23.5 35.5v10q0 24 -22 34t-69 10q-49 0 -74 -13t-31 -38h-109q8 68 65 100t150 32q45 0 82 -6.5t63.5 -20.5t41 -35.5t14.5 -52.5q0 -40 -24 -64t-69 -35
q49 -10 78.5 -33.5t29.5 -68.5q0 -71 -57.5 -102t-156.5 -31q-103 0 -162 31.5t-66 107.5h109z" />
    <glyph glyph-name="four.num" horiz-adv-x="531" 
d="M266 690h160v-257h78v-82h-78v-86h-107v86h-294v72zM319 433v192l-173 -192h173z" />
    <glyph glyph-name="five.num" horiz-adv-x="514" 
d="M144 384q8 -26 34.5 -38.5t80.5 -12.5q59 0 84.5 14t25.5 49v13q0 35 -26.5 48t-84.5 13q-38 0 -67.5 -8t-47.5 -22l-95 17l22 233h383v-83h-301l-9 -99q22 15 57.5 25t80.5 10q93 0 145.5 -32.5t52.5 -106.5q0 -82 -56 -116.5t-163 -34.5q-103 0 -161 30.5t-67 100.5
h112z" />
    <glyph glyph-name="six.num" horiz-adv-x="547" 
d="M40 466q0 68 17 113.5t48.5 72.5t76 38.5t98.5 11.5q106 0 159.5 -31.5t62.5 -86.5h-111q-17 38 -109 38q-71 0 -103.5 -27t-32.5 -95v-11q23 28 64.5 41t97.5 13q100 0 151.5 -32t51.5 -109q0 -81 -60 -115t-172 -34q-58 0 -102.5 9.5t-75 34t-46 65.5t-15.5 104z
M399 411q0 34 -30 47t-90 13q-69 0 -96 -16t-28 -52q0 -36 27 -54t96 -18q63 0 92 14.5t29 46.5v19z" />
    <glyph glyph-name="seven.num" horiz-adv-x="459" 
d="M22 690h418v-70l-234 -355h-116l226 340h-294v85z" />
    <glyph glyph-name="eight.num" horiz-adv-x="545" 
d="M38 385q0 83 100 105q-43 11 -63.5 36t-20.5 58q0 34 16.5 56.5t45.5 36t69 19.5t88 6q47 0 87 -6t69 -19.5t45 -36t16 -56.5t-19.5 -58.5t-63.5 -35.5q48 -11 73.5 -37t25.5 -68q0 -72 -59.5 -102t-173.5 -30q-115 0 -175 30t-60 102zM397 392q0 29 -30 42.5t-95 13.5
q-63 0 -93.5 -13t-30.5 -42v-12q0 -29 31 -41.5t93 -12.5q63 0 94 12t31 41v12zM383 580q0 26 -25 37t-86 11q-60 0 -85.5 -11t-25.5 -37v-8q0 -25 26 -36.5t85 -11.5q60 0 85.5 12t25.5 36v8z" />
    <glyph glyph-name="nine.num" horiz-adv-x="547" 
d="M507 489q0 -68 -17 -113.5t-48.5 -72.5t-76 -38.5t-98.5 -11.5q-106 0 -159.5 31.5t-62.5 86.5h111q17 -38 109 -38q71 0 103.5 27t32.5 95v11q-23 -28 -64.5 -41t-97.5 -13q-100 0 -151.5 32t-51.5 109q0 81 60 115t172 34q58 0 102.5 -9.5t75 -34t46 -65.5t15.5 -104z
M148 544q0 -34 30 -47t90 -13q69 0 96 16t28 52q0 36 -27 54t-96 18q-63 0 -92 -14.5t-29 -46.5v-19z" />
    <glyph glyph-name="zero.sub" unicode="&#x2080;" horiz-adv-x="570" 
d="M285 -10q66 0 100.5 28.5t34.5 89.5v45q0 63 -35 89.5t-100 26.5t-100 -26.5t-35 -89.5v-45q0 -62 34.5 -90t100.5 -28zM285 -95q-54 0 -99 12.5t-77.5 39.5t-50.5 70t-18 104t18 104t50.5 69t77.5 38t99 12t99 -12t77.5 -38t50.5 -69t18 -104t-18 -104t-50.5 -70
t-77.5 -39.5t-99 -12.5z" />
    <glyph glyph-name="one.sub" unicode="&#x2081;" horiz-adv-x="317" 
d="M143 342h108v-425h-108v327l-116 -75v98z" />
    <glyph glyph-name="two.sub" unicode="&#x2082;" horiz-adv-x="501" 
d="M38 -43q0 59 23 93.5t57.5 55t75 30.5t75 18.5t57.5 21t23 37.5v10q0 27 -24.5 38t-67.5 11q-49 0 -73 -14t-31 -44h-110q8 74 63 107t151 33q44 0 81 -6.5t64 -22t42 -40.5t15 -61q0 -44 -21.5 -69.5t-54 -40.5t-71.5 -23t-73.5 -18.5t-60 -26.5t-31.5 -46h311v-83h-420
v40v0z" />
    <glyph glyph-name="three.sub" unicode="&#x2083;" horiz-adv-x="512" 
d="M141 44q9 -30 35.5 -44t83.5 -14q51 0 76.5 11t25.5 38v13q0 26 -29 37t-81 11h-56v77h57q48 0 71.5 10.5t23.5 35.5v10q0 24 -22 34t-69 10q-49 0 -74 -13t-31 -38h-109q8 68 65 100t150 32q45 0 82 -6.5t63.5 -20.5t41 -35.5t14.5 -52.5q0 -40 -24 -64t-69 -35
q49 -10 78.5 -33.5t29.5 -68.5q0 -71 -57.5 -102t-156.5 -31q-103 0 -162 31.5t-66 107.5h109z" />
    <glyph glyph-name="four.sub" unicode="&#x2084;" horiz-adv-x="531" 
d="M266 342h160v-257h78v-82h-78v-86h-107v86h-294v72zM319 85v192l-173 -192h173z" />
    <glyph glyph-name="five.sub" unicode="&#x2085;" horiz-adv-x="514" 
d="M144 36q8 -26 34.5 -38.5t80.5 -12.5q59 0 84.5 14t25.5 49v13q0 35 -26.5 48t-84.5 13q-38 0 -67.5 -8t-47.5 -22l-95 17l22 233h383v-83h-301l-9 -99q22 15 57.5 25t80.5 10q93 0 145.5 -32.5t52.5 -106.5q0 -82 -56 -116.5t-163 -34.5q-103 0 -161 30.5t-67 100.5h112
z" />
    <glyph glyph-name="six.sub" unicode="&#x2086;" horiz-adv-x="547" 
d="M40 118q0 68 17 113.5t48.5 72.5t76 38.5t98.5 11.5q106 0 159.5 -31.5t62.5 -86.5h-111q-17 38 -109 38q-71 0 -103.5 -27t-32.5 -95v-11q23 28 64.5 41t97.5 13q100 0 151.5 -32t51.5 -109q0 -81 -60 -115t-172 -34q-58 0 -102.5 9.5t-75 34t-46 65.5t-15.5 104z
M399 63q0 34 -30 47t-90 13q-69 0 -96 -16t-28 -52q0 -36 27 -54t96 -18q63 0 92 14.5t29 46.5v19z" />
    <glyph glyph-name="seven.sub" unicode="&#x2087;" horiz-adv-x="459" 
d="M22 342h418v-70l-234 -355h-116l226 340h-294v85z" />
    <glyph glyph-name="eight.sub" unicode="&#x2088;" horiz-adv-x="545" 
d="M38 37q0 83 100 105q-43 11 -63.5 36t-20.5 58q0 34 16.5 56.5t45.5 36t69 19.5t88 6q47 0 87 -6t69 -19.5t45 -36t16 -56.5t-19.5 -58.5t-63.5 -35.5q48 -11 73.5 -37t25.5 -68q0 -72 -59.5 -102t-173.5 -30q-115 0 -175 30t-60 102zM397 44q0 29 -30 42.5t-95 13.5
q-63 0 -93.5 -13t-30.5 -42v-12q0 -29 31 -41.5t93 -12.5q63 0 94 12t31 41v12zM383 232q0 26 -25 37t-86 11q-60 0 -85.5 -11t-25.5 -37v-8q0 -25 26 -36.5t85 -11.5q60 0 85.5 12t25.5 36v8z" />
    <glyph glyph-name="nine.sub" unicode="&#x2089;" horiz-adv-x="547" 
d="M507 141q0 -68 -17 -113.5t-48.5 -72.5t-76 -38.5t-98.5 -11.5q-106 0 -159.5 31.5t-62.5 86.5h111q17 -38 109 -38q71 0 103.5 27t32.5 95v11q-23 -28 -64.5 -41t-97.5 -13q-100 0 -151.5 32t-51.5 109q0 81 60 115t172 34q58 0 102.5 -9.5t75 -34t46 -65.5t15.5 -104z
M148 196q0 -34 30 -47t90 -13q69 0 96 16t28 52q0 36 -27 54t-96 18q-63 0 -92 -14.5t-29 -46.5v-19z" />
    <glyph glyph-name="zero.sup" unicode="&#x2070;" horiz-adv-x="570" 
d="M285 448q66 0 100.5 28.5t34.5 89.5v45q0 63 -35 89.5t-100 26.5t-100 -26.5t-35 -89.5v-45q0 -62 34.5 -90t100.5 -28zM285 363q-54 0 -99 12.5t-77.5 39.5t-50.5 70t-18 104t18 104t50.5 69t77.5 38t99 12t99 -12t77.5 -38t50.5 -69t18 -104t-18 -104t-50.5 -70
t-77.5 -39.5t-99 -12.5z" />
    <glyph glyph-name="one.sup" horiz-adv-x="317" 
d="M143 800h108v-425h-108v327l-116 -75v98z" />
    <glyph glyph-name="two.sup" horiz-adv-x="501" 
d="M38 415q0 59 23 93.5t57.5 55t75 30.5t75 18.5t57.5 21t23 37.5v10q0 27 -24.5 38t-67.5 11q-49 0 -73 -14t-31 -44h-110q8 74 63 107t151 33q44 0 81 -6.5t64 -22t42 -40.5t15 -61q0 -44 -21.5 -69.5t-54 -40.5t-71.5 -23t-73.5 -18.5t-60 -26.5t-31.5 -46h311v-83h-420
v40v0z" />
    <glyph glyph-name="three.sup" horiz-adv-x="512" 
d="M141 502q9 -30 35.5 -44t83.5 -14q51 0 76.5 11t25.5 38v13q0 26 -29 37t-81 11h-56v77h57q48 0 71.5 10.5t23.5 35.5v10q0 24 -22 34t-69 10q-49 0 -74 -13t-31 -38h-109q8 68 65 100t150 32q45 0 82 -6.5t63.5 -20.5t41 -35.5t14.5 -52.5q0 -40 -24 -64t-69 -35
q49 -10 78.5 -33.5t29.5 -68.5q0 -71 -57.5 -102t-156.5 -31q-103 0 -162 31.5t-66 107.5h109z" />
    <glyph glyph-name="four.sup" unicode="&#x2074;" horiz-adv-x="531" 
d="M266 800h160v-257h78v-82h-78v-86h-107v86h-294v72zM319 543v192l-173 -192h173z" />
    <glyph glyph-name="five.sup" unicode="&#x2075;" horiz-adv-x="514" 
d="M144 494q8 -26 34.5 -38.5t80.5 -12.5q59 0 84.5 14t25.5 49v13q0 35 -26.5 48t-84.5 13q-38 0 -67.5 -8t-47.5 -22l-95 17l22 233h383v-83h-301l-9 -99q22 15 57.5 25t80.5 10q93 0 145.5 -32.5t52.5 -106.5q0 -82 -56 -116.5t-163 -34.5q-103 0 -161 30.5t-67 100.5
h112z" />
    <glyph glyph-name="six.sup" unicode="&#x2076;" horiz-adv-x="547" 
d="M40 576q0 68 17 113.5t48.5 72.5t76 38.5t98.5 11.5q106 0 159.5 -31.5t62.5 -86.5h-111q-17 38 -109 38q-71 0 -103.5 -27t-32.5 -95v-11q23 28 64.5 41t97.5 13q100 0 151.5 -32t51.5 -109q0 -81 -60 -115t-172 -34q-58 0 -102.5 9.5t-75 34t-46 65.5t-15.5 104z
M399 521q0 34 -30 47t-90 13q-69 0 -96 -16t-28 -52q0 -36 27 -54t96 -18q63 0 92 14.5t29 46.5v19z" />
    <glyph glyph-name="seven.sup" unicode="&#x2077;" horiz-adv-x="459" 
d="M22 800h418v-70l-234 -355h-116l226 340h-294v85z" />
    <glyph glyph-name="eight.sup" unicode="&#x2078;" horiz-adv-x="545" 
d="M38 495q0 83 100 105q-43 11 -63.5 36t-20.5 58q0 34 16.5 56.5t45.5 36t69 19.5t88 6q47 0 87 -6t69 -19.5t45 -36t16 -56.5t-19.5 -58.5t-63.5 -35.5q48 -11 73.5 -37t25.5 -68q0 -72 -59.5 -102t-173.5 -30q-115 0 -175 30t-60 102zM397 502q0 29 -30 42.5t-95 13.5
q-63 0 -93.5 -13t-30.5 -42v-12q0 -29 31 -41.5t93 -12.5q63 0 94 12t31 41v12zM383 690q0 26 -25 37t-86 11q-60 0 -85.5 -11t-25.5 -37v-8q0 -25 26 -36.5t85 -11.5q60 0 85.5 12t25.5 36v8z" />
    <glyph glyph-name="nine.sup" unicode="&#x2079;" horiz-adv-x="547" 
d="M507 599q0 -68 -17 -113.5t-48.5 -72.5t-76 -38.5t-98.5 -11.5q-106 0 -159.5 31.5t-62.5 86.5h111q17 -38 109 -38q71 0 103.5 27t32.5 95v11q-23 -28 -64.5 -41t-97.5 -13q-100 0 -151.5 32t-51.5 109q0 81 60 115t172 34q58 0 102.5 -9.5t75 -34t46 -65.5t15.5 -104z
M148 654q0 -34 30 -47t90 -13q69 0 96 16t28 52q0 36 -27 54t-96 18q-63 0 -92 -14.5t-29 -46.5v-19z" />
    <glyph glyph-name="onesuperior" unicode="&#xb9;" horiz-adv-x="317" 
d="M143 800h108v-425h-108v327l-116 -75v98z" />
    <glyph glyph-name="threesuperior" unicode="&#xb3;" horiz-adv-x="512" 
d="M141 502q9 -30 35.5 -44t83.5 -14q51 0 76.5 11t25.5 38v13q0 26 -29 37t-81 11h-56v77h57q48 0 71.5 10.5t23.5 35.5v10q0 24 -22 34t-69 10q-49 0 -74 -13t-31 -38h-109q8 68 65 100t150 32q45 0 82 -6.5t63.5 -20.5t41 -35.5t14.5 -52.5q0 -40 -24 -64t-69 -35
q49 -10 78.5 -33.5t29.5 -68.5q0 -71 -57.5 -102t-156.5 -31q-103 0 -162 31.5t-66 107.5h109z" />
    <glyph glyph-name="twosuperior" unicode="&#xb2;" horiz-adv-x="501" 
d="M38 415q0 59 23 93.5t57.5 55t75 30.5t75 18.5t57.5 21t23 37.5v10q0 27 -24.5 38t-67.5 11q-49 0 -73 -14t-31 -44h-110q8 74 63 107t151 33q44 0 81 -6.5t64 -22t42 -40.5t15 -61q0 -44 -21.5 -69.5t-54 -40.5t-71.5 -23t-73.5 -18.5t-60 -26.5t-31.5 -46h311v-83h-420
v40v0z" />
    <glyph glyph-name="underscore" unicode="_" horiz-adv-x="662" 
d="M0 -54h662v-96h-662v96z" />
    <glyph glyph-name="hyphen" unicode="-" horiz-adv-x="459" 
d="M406 318v-117h-352v117h352z" />
    <glyph glyph-name="endash" unicode="&#x2013;" horiz-adv-x="741" 
d="M689 307v-100h-638v100h638z" />
    <glyph glyph-name="emdash" unicode="&#x2014;" horiz-adv-x="1042" 
d="M971 307v-100h-900v100h900z" />
    <glyph glyph-name="parenleft" unicode="(" horiz-adv-x="450" 
d="M57 265q0 123 27 211t75.5 145t115 86.5t145.5 37.5v-106q-106 -14 -166.5 -93.5t-60.5 -216.5v-126q0 -69 16 -124t45.5 -94.5t71.5 -63t94 -30.5v-106q-80 7 -147 37t-115 87.5t-74.5 145t-26.5 210.5z" />
    <glyph glyph-name="parenright" unicode=")" horiz-adv-x="450" 
d="M393 265q0 -123 -27 -211t-75.5 -145t-115 -87t-145.5 -37v106q106 14 166.5 93.5t60.5 216.5v126q0 69 -16 124t-45.5 94.5t-71.5 63t-94 30.5v106q80 -8 147 -37.5t115 -87t74.5 -145t26.5 -210.5z" />
    <glyph glyph-name="bracketleft" unicode="[" horiz-adv-x="459" 
d="M430 740v-100h-218v-750h218v-100h-345v950h345z" />
    <glyph glyph-name="bracketright" unicode="]" horiz-adv-x="459" 
d="M29 -210v100h218v750h-218v100h345v-950h-345z" />
    <glyph glyph-name="braceleft" unicode="{" horiz-adv-x="468" 
d="M128 98q0 54 -24.5 82.5t-82.5 30.5v108q57 2 82 32.5t25 81.5v169q0 74 33.5 106t114.5 32h163v-100h-125q-36 0 -49.5 -15t-13.5 -49v-156q0 -28 -3.5 -53t-14.5 -45.5t-32.5 -35.5t-57.5 -22q36 -5 57 -18.5t32.5 -33.5t15 -45.5t3.5 -54.5v-156q0 -35 13.5 -50.5
t49.5 -15.5h125v-100h-163q-81 0 -114.5 32t-33.5 106v170z" />
    <glyph glyph-name="braceright" unicode="}" horiz-adv-x="468" 
d="M340 432q0 -54 24.5 -82.5t82.5 -30.5v-108q-57 -2 -82 -32.5t-25 -81.5v-169q0 -74 -33.5 -106t-114.5 -32h-163v100h125q36 0 49.5 15t13.5 49v156q0 28 3.5 53t14.5 45.5t32.5 35t57.5 22.5q-36 5 -57 18.5t-32.5 33.5t-15 45.5t-3.5 54.5v156q0 35 -13.5 50.5
t-49.5 15.5h-125v100h163q81 0 114.5 -32t33.5 -106v-170z" />
    <glyph glyph-name="numbersign" unicode="#" horiz-adv-x="915" 
d="M98 525h167l39 165h119l-39 -165h224l39 165h118l-39 -165h148l-24 -102h-148l-38 -166h174l-24 -102h-174l-36 -155h-118l36 155h-224l-36 -155h-119l36 155h-138l24 102h138l38 166h-167zM322 257h224l38 166h-224z" />
    <glyph glyph-name="percent" unicode="%" horiz-adv-x="1093" 
d="M374 529q0 52 -28 69.5t-88 17.5t-88.5 -17.5t-28.5 -69.5v-18q0 -52 28.5 -69.5t88.5 -17.5t88 17t28 69v19zM952 179q0 52 -28 69.5t-88 17.5t-88 -17.5t-28 -69.5v-18q0 -52 28 -69.5t88 -17.5t88 17t28 69v19zM31 521q0 95 56.5 138t170.5 43q113 0 169.5 -43
t56.5 -138q0 -96 -56.5 -140t-169.5 -44q-114 0 -170.5 44t-56.5 140zM909 690l-596 -690h-132l596 690h132zM610 171q0 95 56.5 138.5t169.5 43.5t169.5 -43.5t56.5 -138.5q0 -96 -56.5 -139.5t-169.5 -43.5t-169.5 43.5t-56.5 139.5z" />
    <glyph glyph-name="perthousand" unicode="&#x2030;" horiz-adv-x="1586" 
d="M1446 179q0 52 -27.5 69.5t-86.5 17.5q-60 0 -87 -17.5t-27 -69.5v-18q0 -52 27.5 -69.5t86.5 -17.5q58 0 86 17t28 69v19zM1108 171q0 95 56 138.5t168 43.5t168 -43.5t56 -138.5q0 -96 -56 -139.5t-168 -43.5t-168 43.5t-56 139.5zM374 529q0 52 -28 69.5t-88 17.5
t-88.5 -17.5t-28.5 -69.5v-18q0 -52 28.5 -69.5t88.5 -17.5t88 17t28 69v19zM952 179q0 52 -28 69.5t-88 17.5t-88 -17.5t-28 -69.5v-18q0 -52 28 -69.5t88 -17.5t88 17t28 69v19zM31 521q0 95 56.5 138t170.5 43q113 0 169.5 -43t56.5 -138q0 -96 -56.5 -140t-169.5 -44
q-114 0 -170.5 44t-56.5 140zM909 690l-596 -690h-132l596 690h132zM610 171q0 95 56.5 138.5t169.5 43.5t169.5 -43.5t56.5 -138.5q0 -96 -56.5 -139.5t-169.5 -43.5t-169.5 43.5t-56.5 139.5z" />
    <glyph glyph-name="quotesingle" unicode="'" horiz-adv-x="251" 
d="M190 690l-13 -252h-104l-12 252h129z" />
    <glyph glyph-name="quotedbl" unicode="&#x22;" horiz-adv-x="463" 
d="M190 690l-13 -252h-104l-12 252h129zM402 690l-13 -252h-104l-12 252h129z" />
    <glyph glyph-name="quoteleft" unicode="&#x2018;" horiz-adv-x="265" 
d="M194 633q-34 0 -49 -12.5t-15 -41.5v-12h5q79 0 79 -72q0 -71 -81 -71q-42 0 -62 18t-20 58v67q0 73 33.5 104.5t109.5 31.5v-70v0z" />
    <glyph glyph-name="quoteright" unicode="&#x2019;" horiz-adv-x="265" 
d="M71 494q34 0 49 12.5t15 41.5v12h-5q-79 0 -79 72q0 71 81 71q42 0 62 -18t20 -58v-67q0 -73 -33.5 -104.5t-109.5 -31.5v70v0z" />
    <glyph glyph-name="quotedblleft" unicode="&#x201c;" horiz-adv-x="491" 
d="M194 633q-34 0 -49 -12.5t-15 -41.5v-12h5q79 0 79 -72q0 -71 -81 -71q-42 0 -62 18t-20 58v67q0 73 33.5 104.5t109.5 31.5v-70zM420 633q-34 0 -49 -12.5t-15 -41.5v-12h5q79 0 79 -72q0 -71 -81 -71q-42 0 -62 18t-20 58v67q0 73 33.5 104.5t109.5 31.5v-70z" />
    <glyph glyph-name="quotedblright" unicode="&#x201d;" horiz-adv-x="491" 
d="M71 494q34 0 49 12.5t15 41.5v12h-5q-79 0 -79 72q0 71 81 71q42 0 62 -18t20 -58v-67q0 -73 -33.5 -104.5t-109.5 -31.5v70zM297 494q34 0 49 12.5t15 41.5v12h-5q-79 0 -79 72q0 71 81 71q42 0 62 -18t20 -58v-67q0 -73 -33.5 -104.5t-109.5 -31.5v70z" />
    <glyph glyph-name="quotesinglbase" unicode="&#x201a;" horiz-adv-x="265" 
d="M71 -78q34 0 49 12.5t15 41.5v12h-5q-79 0 -79 72q0 71 81 71q42 0 62 -18t20 -58v-67q0 -73 -33.5 -104.5t-109.5 -31.5v70v0z" />
    <glyph glyph-name="quotedblbase" unicode="&#x201e;" horiz-adv-x="491" 
d="M71 -78q34 0 49 12.5t15 41.5v12h-5q-79 0 -79 72q0 71 81 71q42 0 62 -18t20 -58v-67q0 -73 -33.5 -104.5t-109.5 -31.5v70zM297 -78q34 0 49 12.5t15 41.5v12h-5q-79 0 -79 72q0 71 81 71q42 0 62 -18t20 -58v-67q0 -73 -33.5 -104.5t-109.5 -31.5v70z" />
    <glyph glyph-name="guilsinglleft" unicode="&#x2039;" horiz-adv-x="356" 
d="M44 303l250 180v-116l-155 -109l156 -107v-120l-251 180v92z" />
    <glyph glyph-name="guilsinglright" unicode="&#x203a;" horiz-adv-x="356" 
d="M312 211l-250 -180v116l155 109l-156 107v120l251 -180v-92z" />
    <glyph glyph-name="guillemotleft" unicode="&#xab;" horiz-adv-x="614" 
d="M44 303l250 180v-116l-155 -109l156 -107v-120l-251 180v92zM302 303l250 180v-116l-155 -109l156 -107v-120l-251 180v92z" />
    <glyph glyph-name="guillemotright" unicode="&#xbb;" horiz-adv-x="614" 
d="M570 211l-250 -180v116l155 109l-156 107v120l251 -180v-92zM312 211l-250 -180v116l155 109l-156 107v120l251 -180v-92z" />
    <glyph glyph-name="asterisk" unicode="*" horiz-adv-x="545" 
d="M195 506l-131 59l40 70l130 -72l-7 127h91l-8 -126l131 71l40 -70l-131 -59l131 -58l-40 -70l-131 71l8 -126h-91l7 126l-130 -71l-40 70z" />
    <glyph glyph-name="period" unicode="." horiz-adv-x="265" 
d="M51 59q0 38 20.5 55t60.5 17q41 0 61.5 -17t20.5 -55q0 -71 -82 -71q-81 0 -81 71z" />
    <glyph glyph-name="comma" unicode="," horiz-adv-x="265" 
d="M71 -78q34 0 49 12.5t15 41.5v12h-5q-79 0 -79 72q0 71 81 71q42 0 62 -18t20 -58v-67q0 -73 -33.5 -104.5t-109.5 -31.5v70v0z" />
    <glyph glyph-name="colon" unicode=":" horiz-adv-x="265" 
d="M51 59q0 38 20.5 55t60.5 17q41 0 61.5 -17t20.5 -55q0 -71 -82 -71q-81 0 -81 71zM51 399q0 38 20.5 55t60.5 17q41 0 61.5 -17t20.5 -55q0 -71 -82 -71q-81 0 -81 71z" />
    <glyph glyph-name="semicolon" unicode=";" horiz-adv-x="265" 
d="M51 399q0 38 20.5 55t60.5 17q41 0 61.5 -17t20.5 -55q0 -71 -82 -71q-81 0 -81 71zM71 -78q34 0 49 12.5t15 41.5v12h-5q-79 0 -79 72q0 71 81 71q42 0 62 -18t20 -58v-67q0 -73 -33.5 -104.5t-109.5 -31.5v70v0z" />
    <glyph glyph-name="ellipsis" unicode="&#x2026;" horiz-adv-x="753" 
d="M51 59q0 38 20.5 55t60.5 17q41 0 61.5 -17t20.5 -55q0 -71 -82 -71q-81 0 -81 71zM539 59q0 38 20.5 55t60.5 17q41 0 61.5 -17t20.5 -55q0 -71 -82 -71q-81 0 -81 71zM295 59q0 38 20.5 55t60.5 17q41 0 61.5 -17t20.5 -55q0 -71 -82 -71q-81 0 -81 71z" />
    <glyph glyph-name="exclam" unicode="!" horiz-adv-x="297" 
d="M226 690l-23 -478h-109l-23 478h155zM67 59q0 38 20.5 55t60.5 17q41 0 61.5 -17t20.5 -55q0 -71 -82 -71q-81 0 -81 71z" />
    <glyph glyph-name="question" unicode="?" horiz-adv-x="694" 
d="M517 517q0 42 -40 60.5t-127 18.5q-81 0 -127 -21.5t-53 -78.5h-142q3 56 26.5 95t65 64t99.5 36t132 11q152 0 230 -45t78 -143q0 -52 -20 -82.5t-50 -49.5t-65 -31t-65 -26t-50 -35.5t-20 -59.5v-19h-124v20q0 54 18.5 87t46.5 54t61 33.5t61 24t46.5 26.5t18.5 41v20z
M248 59q0 38 20.5 55t60.5 17q41 0 61.5 -17t20.5 -55q0 -71 -82 -71q-81 0 -81 71z" />
    <glyph glyph-name="slash" unicode="/" horiz-adv-x="576" 
d="M556 740l-387 -835h-136l386 835h137z" />
    <glyph glyph-name="backslash" unicode="\" horiz-adv-x="572" 
d="M159 740l380 -835h-139l-379 835h138z" />
    <glyph glyph-name="fraction" unicode="&#x2044;" horiz-adv-x="319" 
d="M380 690h123l-573 -690h-122z" />
    <glyph glyph-name="bar" unicode="|" horiz-adv-x="286" 
d="M207 730v-930h-128v930h128z" />
    <glyph glyph-name="brokenbar" unicode="&#xa6;" horiz-adv-x="286" 
d="M207 730v-370h-128v370h128zM207 170v-370h-128v370h128z" />
    <glyph glyph-name="at" unicode="@" horiz-adv-x="1175" 
d="M302 247q0 63 16 108t46 73.5t73.5 42t98.5 13.5q63 0 109 -19t74 -61v65h118v-257q0 -34 5.5 -55t16.5 -32.5t26.5 -15.5t36.5 -4q44 0 67.5 31.5t23.5 108.5v56q0 84 -27.5 143t-81 96t-131.5 53.5t-179 16.5q-99 0 -178.5 -17.5t-136 -56t-87 -100.5t-30.5 -152v-68
q0 -94 32.5 -156t90 -99t137 -52t172.5 -15q30 0 67.5 2.5t75 7.5t70.5 12t55 17v-91q-20 -9 -49.5 -16.5t-65 -13t-75 -8.5t-78.5 -3q-116 0 -215.5 19.5t-173.5 70t-116 137.5t-42 222q0 123 39.5 209t111.5 140t172.5 78.5t223.5 24.5q124 0 223 -24t168 -74.5
t106 -129.5t37 -189q0 -144 -55.5 -207.5t-158.5 -63.5q-83 0 -126 31.5t-51 78.5q-24 -57 -75 -83.5t-126 -26.5q-54 0 -97.5 13t-74 41t-46.5 72.5t-16 106.5zM716 272q0 66 -36 94t-108 28q-71 0 -107 -28.5t-36 -94.5v-47q0 -62 36 -91t107 -29q72 0 108 29.5t36 92.5
v46z" />
    <glyph glyph-name="ampersand" unicode="&#x26;" horiz-adv-x="861" 
d="M37 183q-1 68 41 115t139 76q-46 38 -71 74.5t-25 87.5q0 75 60 120.5t193 45.5q67 0 114.5 -12t78 -34t45 -52t14.5 -67q0 -61 -48.5 -105t-155.5 -80l191 -149q34 55 42 142h122q-5 -66 -23.5 -119t-50.5 -94l2 -1q26 -21 49.5 -29t60.5 -8h26v-94h-45q-52 0 -89 12.5
t-73 40.5l-10 7q-56 -37 -126 -54.5t-148 -17.5q-86 0 -145.5 15t-97 41t-54 61.5t-16.5 77.5zM359 83q52 0 97 10.5t82 33.5l-242 187q-63 -20 -93.5 -46t-30.5 -68v-16q0 -50 48.5 -75.5t138.5 -25.5zM249 527q0 -31 26.5 -58t71.5 -60q75 23 113 51.5t38 67.5v10
q0 36 -34 53.5t-90 17.5q-58 0 -91.5 -18t-33.5 -53v-11z" />
    <glyph glyph-name="section" unicode="&#xa7;" horiz-adv-x="714" 
d="M196 22q6 -38 42.5 -59.5t123.5 -21.5q151 0 151 70v13q0 22 -20 37t-53 26t-75.5 20t-86.5 19.5t-86.5 24.5t-75.5 35t-53 50.5t-20 71.5q0 51 26.5 85.5t72.5 55.5q-31 21 -49.5 49.5t-18.5 69.5q0 86 70.5 130t209.5 44q145 0 213.5 -46t75.5 -134h-136
q-7 41 -41.5 61.5t-111.5 20.5q-66 0 -105.5 -17t-39.5 -53v-12q0 -29 34 -46.5t85.5 -31t111.5 -27.5t111.5 -36t85.5 -56t34 -88q0 -51 -25.5 -84.5t-68.5 -56.5q32 -20 51.5 -49t19.5 -70q0 -86 -72.5 -131t-213.5 -45q-150 0 -222.5 45t-80.5 136h137zM543 268
q0 31 -29.5 50.5t-74.5 33.5t-100 26t-106 29q-28 -13 -45 -32t-17 -45v-13q0 -33 29.5 -52.5t75.5 -34t101.5 -26.5t107.5 -28q24 12 41 31.5t17 48.5v12z" />
    <glyph glyph-name="paragraph" unicode="&#xb6;" horiz-adv-x="761" 
d="M34 483q0 58 15.5 98t45.5 64t73 34.5t99 10.5h179v-840h-119v428h-54q-57 0 -101 10t-75 34t-47 63t-16 98zM678 690v-840h-119v840h119z" />
    <glyph glyph-name="uni2116" unicode="&#x2116;" horiz-adv-x="1357" 
d="M207 555v-555h-129v690h191l381 -554v554h129v-690h-190zM869 522q0 94 55 137t166 43q109 0 164.5 -43t55.5 -137q0 -95 -55.5 -139.5t-164.5 -44.5q-111 0 -166 44.5t-55 139.5zM883 274h412v-94h-412v94zM1200 531q0 51 -26.5 68t-83.5 17t-84 -17t-27 -68v-19
q0 -51 27 -69t84 -18q55 0 82.5 18t27.5 68v20z" />
    <glyph glyph-name="periodcentered" unicode="&#xb7;" horiz-adv-x="280" 
d="M58 275q0 38 20.5 55t60.5 17q41 0 61.5 -17t20.5 -55q0 -71 -82 -71q-81 0 -81 71z" />
    <glyph glyph-name="bullet" unicode="&#x2022;" horiz-adv-x="475" 
d="M84 359q0 69 39.5 99t114.5 30t114 -30t39 -99t-39 -100t-114 -31t-114.5 31t-39.5 100z" />
    <glyph glyph-name="minute" unicode="&#x2032;" horiz-adv-x="273" 
d="M241 690l-83 -256h-116l70 256h129z" />
    <glyph glyph-name="second" unicode="&#x2033;" horiz-adv-x="493" 
d="M241 690l-83 -256h-116l70 256h129zM462 690l-83 -256h-116l70 256h129z" />
    <glyph glyph-name="plus" unicode="+" horiz-adv-x="704" 
d="M294 299h-238v112h238v220h118v-220h236v-112h-236v-219h-118v219z" />
    <glyph glyph-name="minus" unicode="&#x2212;" horiz-adv-x="704" 
d="M648 411v-112h-592v112h592z" />
    <glyph glyph-name="plusminus" unicode="&#xb1;" horiz-adv-x="707" 
d="M296 403h-238v112h238v168h118v-168h236v-112h-236v-168h-118v168zM650 171v-112h-592v112h592z" />
    <glyph glyph-name="divide" unicode="&#xf7;" horiz-adv-x="698" 
d="M268 569q0 37 20.5 53.5t60.5 16.5t60.5 -16.5t20.5 -53.5q0 -70 -81 -70t-81 70zM268 141q0 70 81 70t81 -70q0 -37 -20.5 -53.5t-60.5 -16.5t-60.5 16.5t-20.5 53.5zM645 411v-112h-592v112h592z" />
    <glyph glyph-name="multiply" unicode="&#xd7;" horiz-adv-x="690" 
d="M127 629l218 -195l218 195l79 -85l-210 -187l210 -186l-79 -86l-218 194l-218 -194l-78 85l209 186l-210 188z" />
    <glyph glyph-name="equal" unicode="=" horiz-adv-x="712" 
d="M653 532v-112h-592v112h592zM653 293v-112h-592v112h592z" />
    <glyph glyph-name="less" unicode="&#x3c;" horiz-adv-x="713" 
d="M52 424l592 213v-120l-444 -158l444 -158v-122l-592 213v132z" />
    <glyph glyph-name="greater" unicode="&#x3e;" horiz-adv-x="713" 
d="M661 292l-592 -213v120l444 158l-444 158v122l592 -213v-132z" />
    <glyph glyph-name="lessequal" unicode="&#x2264;" horiz-adv-x="713" 
d="M58 525l592 164v-115l-450 -119l450 -116v-116l-592 162v140zM650 171v-112h-592v112h592z" />
    <glyph glyph-name="greaterequal" unicode="&#x2265;" horiz-adv-x="713" 
d="M516 454l-453 119v116l593 -162v-144l-593 -160v115zM656 171v-112h-593v112h593z" />
    <glyph glyph-name="approxequal" unicode="&#x2248;" horiz-adv-x="698" 
d="M214 555q40 0 74.5 -11t65 -23.5t58.5 -23.5t55 -11q35 0 51.5 17t16.5 48h110q0 -80 -39 -124t-120 -44q-38 0 -72 10.5t-65.5 22.5t-60 22.5t-55.5 10.5q-38 0 -54.5 -16t-16.5 -46h-109q0 81 39.5 124.5t121.5 43.5zM214 327q40 0 74.5 -11t65 -23.5t58.5 -23.5
t55 -11q36 0 52.5 17t16.5 48h109q0 -81 -39 -125t-120 -43q-38 0 -72 10.5t-65.5 22.5t-60 22.5t-55.5 10.5q-38 0 -54.5 -16.5t-16.5 -45.5h-109q0 82 39.5 125t121.5 43z" />
    <glyph glyph-name="notequal" unicode="&#x2260;" horiz-adv-x="711" 
d="M393 532l78 135h126l-78 -135h132v-112h-197l-73 -127h270v-112h-334l-77 -134h-127l77 134h-131v112h196l73 127h-269v112h334z" />
    <glyph glyph-name="logicalnot" unicode="&#xac;" horiz-adv-x="704" 
d="M528 359h-478v112h596v-328h-118v216z" />
    <glyph glyph-name="dollar" unicode="$" horiz-adv-x="780" 
d="M182 201q7 -33 23 -54t42.5 -33t64 -17t87.5 -5q105 0 153 24t48 78q0 36 -23.5 55t-62 29t-88 14t-100.5 8.5t-100.5 14t-88 30.5t-62 56.5t-23.5 93.5q0 98 71.5 147.5t203.5 57.5v110h127v-111q127 -9 195 -56t78 -144h-143q-4 29 -19.5 48t-40.5 30.5t-59.5 16
t-77.5 4.5q-100 0 -149 -21.5t-49 -78.5q0 -34 23.5 -52t62 -27.5t88 -13.5t101 -8.5t101 -14.5t88 -30.5t62 -56.5t23.5 -93q0 -105 -70 -155.5t-218 -57.5v-109h-127v111q-137 9 -204.5 58.5t-79.5 151.5h143z" />
    <glyph glyph-name="cent" unicode="&#xa2;" horiz-adv-x="647" 
d="M40 251q0 126 56.5 188t175.5 73v110h121v-110q97 -8 153 -47.5t67 -117.5h-133q-12 40 -45 58t-101 18q-83 0 -121.5 -31t-38.5 -106v-68q0 -78 41 -108t119 -30q70 0 103 19.5t45 55.5h133q-12 -74 -66.5 -115t-155.5 -49v-111h-121v111q-58 5 -101.5 21.5t-72.5 47
t-43.5 78t-14.5 113.5z" />
    <glyph glyph-name="sterling" unicode="&#xa3;" horiz-adv-x="761" 
d="M72 349h99q-17 14 -34 30t-30.5 35t-22 42t-8.5 53q0 97 83 145t237 48q146 0 227.5 -47t88.5 -151h-140q-6 52 -48.5 73.5t-127.5 21.5t-133 -21.5t-48 -72.5v-15q0 -23 10.5 -41.5t26.5 -34.5t35 -31.5t37 -33.5h260v-90h-212q1 -5 1.5 -10t0.5 -10q0 -41 -22 -73.5
t-63 -55.5h425v-110h-666v105q41 0 77 8t62.5 23t42 37t15.5 49v18q0 5 -0.5 9.5t-1.5 9.5h-171v90z" />
    <glyph glyph-name="currency" unicode="&#xa4;" horiz-adv-x="628" 
d="M131 589l75 -75q47 19 107 19q59 0 108 -19l76 76l68 -68l-67 -67q33 -47 33 -109q0 -61 -31 -106l66 -65l-69 -68l-74 74q-49 -19 -110 -19q-62 0 -108 18l-74 -74l-68 67l65 66q-31 45 -31 107q0 65 32 109l-66 67zM425 346q0 48 -29 73.5t-83 25.5q-53 0 -82 -25.5
t-29 -73.5q0 -47 29 -71.5t82 -24.5q54 0 83 24.5t29 71.5z" />
    <glyph glyph-name="yen" unicode="&#xa5;" horiz-adv-x="827" 
d="M178 690l245 -304l240 304h145l-267 -333h167v-90h-222v-71h222v-90h-222v-106h-140v106h-220v90h220v71h-220v90h163l-272 333h161z" />
    <glyph glyph-name="Euro" unicode="&#x20ac;" horiz-adv-x="922" 
d="M143 312q-1 8 -1 16v16v18.5t1 18.5h-99v77h108q14 66 45 112.5t78 75.5t109 42.5t138 13.5q163 0 253 -51t106 -169h-141q-12 64 -66.5 87.5t-151.5 23.5q-45 0 -82.5 -7t-67 -22.5t-50 -41.5t-30.5 -64h311v-77h-320v-69h320v-77h-312q20 -77 80 -107.5t151 -30.5
q94 0 148 22t71 81h141q-21 -112 -109.5 -162t-250.5 -50q-77 0 -139.5 13.5t-109.5 42.5t-78 76t-44 115h-107v77h99z" />
    <glyph glyph-name="uni20B4" unicode="&#x20b4;" horiz-adv-x="856" 
d="M804 310v-74h-532q-20 -11 -31.5 -26.5t-11.5 -36.5v-12q0 -76 194 -76q97 0 149 21t58 60h141q-8 -88 -95.5 -133t-252.5 -45q-173 0 -253.5 42.5t-80.5 118.5q0 29 11.5 50t29.5 37h-77v74h751zM53 454h529q17 11 27 25t10 36v11q0 39 -45.5 59.5t-145.5 20.5
q-180 0 -195 -85h-140q7 88 93.5 134.5t242.5 46.5q89 0 151.5 -11.5t102.5 -33t58 -52t18 -68.5q0 -27 -10 -47.5t-25 -35.5h80v-74h-751v74z" />
    <glyph glyph-name="uni20B8" unicode="&#x20b8;" horiz-adv-x="773" 
d="M30 433v96h713v-96h-289v-433h-136v433h-288zM743 690v-90h-713v90h713z" />
    <glyph glyph-name="uni20BD" unicode="&#x20bd;" horiz-adv-x="867" 
d="M44 376h118v314h458q109 0 162 -55.5t53 -152.5q0 -95 -53 -148t-162 -53h-323v-72h375v-90h-375v-119h-135v119h-118v90h118v72h-118v95zM693 489q0 45 -25 70t-82 25h-289v-206h289q57 0 82 25t25 68v18z" />
    <glyph glyph-name="dollar.tab" 
d="M456 810v-111q112 -10 174 -57t70 -144h-142q-3 29 -16 48.5t-34 31t-50.5 16t-66.5 4.5q-84 0 -126.5 -21.5t-42.5 -78.5q0 -34 21 -52.5t55.5 -28t78.5 -13.5t90 -8.5t90 -14.5t78.5 -31t55.5 -56.5t21 -93.5q0 -100 -63.5 -151t-192.5 -59v-110h-127v111
q-122 10 -183 59.5t-71 150.5h142q6 -33 19 -54t35.5 -33t55.5 -17t77 -5q91 0 131.5 23t40.5 78q0 36 -21 55.5t-55.5 29.5t-78.5 14t-89.5 9t-89.5 14.5t-78.5 30.5t-55.5 56.5t-21 93.5q0 94 63 143.5t179 59.5v111h127z" />
    <glyph glyph-name="cent.tab" 
d="M468 622v-110q98 -8 154.5 -47t68.5 -119h-134q-13 42 -47 59.5t-103 17.5q-82 0 -122.5 -32t-40.5 -108v-62q0 -79 42 -110t121 -31q71 0 105.5 19.5t46.5 56.5h134q-26 -149 -225 -165v-111h-122v111q-59 5 -103 21.5t-74 47.5t-45 78t-15 113q0 125 58 187.5t179 73.5
v110h122z" />
    <glyph glyph-name="sterling.tab" 
d="M105 351h99q-16 14 -31.5 30t-28 34.5t-20 42t-7.5 52.5q-1 96 76 144t217 48q137 0 212 -47t83 -154h-141q-5 56 -42.5 77t-111.5 21q-72 0 -113 -21t-41 -71v-16q0 -22 9.5 -40t24.5 -34t32.5 -32t34.5 -34h238v-90h-192q1 -5 1.5 -11t0.5 -11q0 -42 -21 -74t-60 -55
h382v-110h-620v105q40 0 74.5 8t60 23.5t40 37t14.5 48.5v19q0 9 -3 20h-167v90z" />
    <glyph glyph-name="yen.tab" 
d="M199 690l204 -287l199 287h136l-230 -327h162v-90h-205v-68h205v-90h-205v-115h-139v115h-203v90h203v68h-203v90h159l-232 327h149z" />
    <glyph glyph-name="Euro.tab" 
d="M125 314v30v17.5t1 17.5h-69v78h76q11 66 36.5 113t64.5 76t90.5 42.5t114.5 13.5q67 0 119 -12t88.5 -39t58.5 -70t29 -105h-135q-5 36 -17.5 59t-32 36.5t-47 19t-63.5 5.5q-34 0 -62.5 -7t-50.5 -23t-37.5 -43t-22.5 -66h226v-78h-232v-1v-64h232v-77h-226
q7 -40 22 -67t37 -44t51 -24.5t64 -7.5q34 0 61 5t46.5 17.5t32.5 34.5t20 55h135q-18 -117 -90.5 -167.5t-205.5 -50.5q-64 0 -115.5 13.5t-90.5 43t-64.5 77t-36.5 115.5h-75v77h68z" />
    <glyph glyph-name="uni20B4.tab" 
d="M718 312v-75h-432q-20 -11 -31.5 -28t-11.5 -40v-9q0 -75 150 -75q72 0 112 21t45 60h141q-7 -88 -83 -133t-219 -45q-146 0 -216 41.5t-70 115.5q0 30 12 52.5t31 39.5h-74v75h646zM72 454h429q17 11 27.5 26.5t10.5 38.5v10q0 77 -144 77q-137 0 -148 -85h-140
q5 89 80 135t211 46q73 0 126 -11.5t87 -32.5t50.5 -50.5t16.5 -66.5q0 -29 -10 -50t-26 -37h76v-74h-646v74z" />
    <glyph glyph-name="uni20B8.tab" 
d="M82 435v96h625v-96h-244v-435h-136v435h-245zM707 690v-90h-625v90h625z" />
    <glyph glyph-name="uni20BD.tab" 
d="M70 374h87v316h349q116 0 169.5 -56t53.5 -153q0 -95 -53.5 -148.5t-169.5 -53.5h-213v-70h299v-90h-299v-119h-136v119h-87v90h87v70h-87v95zM588 490q0 43 -26.5 68.5t-86.5 25.5h-182v-208h182q59 0 86 24.5t27 67.5v22z" />
    <glyph glyph-name="asciicircum" unicode="^" horiz-adv-x="518" 
d="M259 644l-102 -206h-119l146 292h149l147 -292h-120z" />
    <glyph glyph-name="asciitilde" unicode="~" horiz-adv-x="691" 
d="M212 453q45 0 80.5 -13.5t65.5 -30t56.5 -30t53.5 -13.5q35 0 50.5 22t15.5 61h111q0 -89 -40.5 -137.5t-123.5 -48.5q-41 0 -75.5 13t-65 29t-59 29t-56.5 13q-38 0 -53.5 -20.5t-15.5 -58.5h-109q0 90 40.5 137.5t124.5 47.5z" />
    <glyph glyph-name="dieresis" unicode="&#xa8;" horiz-adv-x="427" 
d="M23 660q0 64 73 64q74 0 74 -64q0 -65 -74 -65q-73 0 -73 65zM258 660q0 64 73 64q35 0 54.5 -16t19.5 -48t-19.5 -48.5t-54.5 -16.5q-73 0 -73 65z" />
    <glyph glyph-name="dotaccent" unicode="&#x2d9;" horiz-adv-x="284" 
d="M63 660q0 32 20.5 49t58.5 17q79 0 79 -66q0 -67 -79 -67q-38 0 -58.5 17t-20.5 50z" />
    <glyph glyph-name="dieresis.uc" horiz-adv-x="473" 
d="M31 828q0 65 73 65t73 -65t-73 -65t-73 65zM296 828q0 65 73 65t73 -65t-73 -65t-73 65z" />
    <glyph glyph-name="cyrbreve" horiz-adv-x="433" 
d="M133 745q0 -49 19.5 -71t63.5 -22q43 0 63.5 22t20.5 71h108q-3 -167 -192 -167q-188 0 -191 167h108z" />
    <glyph glyph-name="cyrbreve.uc" horiz-adv-x="455" 
d="M135 907q2 -45 23.5 -63t67.5 -18t67.5 18t23.5 63h115q-2 -80 -51.5 -120t-154.5 -40q-104 0 -154 40t-52 120h115z" />
    <glyph glyph-name="copyright" unicode="&#xa9;" horiz-adv-x="925" 
d="M250 344q0 97 52 146.5t162 49.5q86 0 139.5 -30t61.5 -102h-97q-8 31 -34.5 42.5t-69.5 11.5q-58 0 -85.5 -24t-27.5 -69v-49q0 -48 29 -68.5t83 -20.5q46 0 72 12.5t33 41.5h97q-11 -69 -65.5 -100t-136.5 -31q-102 0 -157.5 45t-55.5 145zM788 369q0 65 -23.5 115
t-66.5 84t-103 51.5t-132 17.5q-73 0 -133 -17.5t-103 -51.5t-66.5 -84.5t-23.5 -115.5v-43q0 -66 23 -117t66 -85.5t103 -52t134 -17.5t134 17.5t102.5 52t65.5 85.5t23 117v44zM58 346q0 85 28.5 151t81 111.5t127.5 69.5t168 24t167.5 -24t127 -69.5t81 -111.5t28.5 -151
q0 -86 -28.5 -152.5t-81 -112t-127 -69.5t-167.5 -24t-168 24t-127.5 69.5t-81 112t-28.5 152.5z" />
    <glyph glyph-name="uni24C5" unicode="&#x24c5;" horiz-adv-x="925" 
d="M518 536q41 0 69 -9t45.5 -26t25.5 -41t8 -53q0 -60 -33 -93.5t-115 -33.5h-112v-119h-97v375h209zM569 419q0 46 -64 46h-99v-115h99q32 0 48 12.5t16 35.5v21zM788 369q0 65 -23.5 115t-66.5 84t-103 51.5t-132 17.5q-73 0 -133 -17.5t-103 -51.5t-66.5 -84.5
t-23.5 -115.5v-43q0 -66 23 -117t66 -85.5t103 -52t134 -17.5t134 17.5t102.5 52t65.5 85.5t23 117v44zM58 346q0 85 28.5 151t81 111.5t127.5 69.5t168 24t167.5 -24t127 -69.5t81 -111.5t28.5 -151q0 -86 -28.5 -152.5t-81 -112t-127 -69.5t-167.5 -24t-168 24
t-127.5 69.5t-81 112t-28.5 152.5z" />
    <glyph glyph-name="registered" unicode="&#xae;" horiz-adv-x="628" 
d="M58 478q0 54 18 95.5t51.5 70t80.5 43.5t106 15q119 0 187.5 -58t68.5 -166q0 -109 -68.5 -166.5t-187.5 -57.5q-59 0 -106 14.5t-80.5 43t-51.5 70.5t-18 96zM508 498q0 77 -53.5 115.5t-141.5 38.5q-87 0 -140 -38.5t-53 -114.5v-31q0 -82 52 -122.5t142 -40.5
t142 40.5t52 122.5v30zM346 593q46 0 66.5 -20.5t20.5 -55.5q0 -48 -37 -66l40 -81h-62l-35 71h-67v-71h-59v223h133zM372 522q0 25 -31 25h-69v-59h69q31 0 31 26v8z" />
    <glyph glyph-name="trademark" unicode="&#x2122;" horiz-adv-x="984" 
d="M533 602v-258h-96v346h146l94 -217l95 217h143v-346h-104v260l-91 -210h-99zM28 616v74h363v-74h-127v-272h-104v272h-132z" />
    <glyph glyph-name="degree" unicode="&#xb0;" horiz-adv-x="514" 
d="M41 533q0 84 55.5 126.5t160.5 42.5t160.5 -43.5t55.5 -125.5q0 -83 -55.5 -126t-160.5 -43t-160.5 42.5t-55.5 126.5zM365 533q0 88 -108 88q-56 0 -82 -21.5t-26 -66.5q0 -46 26 -66.5t82 -20.5q55 0 81.5 20.5t26.5 66.5z" />
    <glyph glyph-name="uni00AD" unicode="&#xad;" horiz-adv-x="459" 
d="M406 318v-117h-352v117h352z" />
    <glyph glyph-name="hyphen.uc" horiz-adv-x="464" 
d="M409 412v-117h-352v117h352z" />
    <glyph glyph-name="endash.uc" horiz-adv-x="748" 
d="M693 400v-100h-638v100h638z" />
    <glyph glyph-name="emdash.uc" horiz-adv-x="1047" 
d="M973 401v-100h-900v100h900z" />
    <glyph glyph-name="parenleft.uc" horiz-adv-x="453" 
d="M59 346q0 123 27 211t75.5 145t115 86.5t145.5 37.5v-106q-106 -14 -166.5 -93.5t-60.5 -216.5v-126q0 -69 16 -124t45.5 -94.5t71.5 -63t94 -30.5v-106q-80 7 -147 37t-115 87.5t-74.5 145t-26.5 210.5z" />
    <glyph glyph-name="parenright.uc" horiz-adv-x="453" 
d="M395 346q0 -123 -27 -211t-75.5 -145t-115 -87t-145.5 -37v106q106 14 166.5 93.5t60.5 216.5v126q0 69 -16 124t-45.5 94.5t-71.5 63t-94 30.5v106q80 -8 147 -37.5t115 -87t74.5 -145t26.5 -210.5z" />
    <glyph glyph-name="bracketleft.uc" horiz-adv-x="463" 
d="M432 822v-100h-218v-750h218v-100h-345v950h345z" />
    <glyph glyph-name="bracketright.uc" horiz-adv-x="463" 
d="M31 -128v100h218v750h-218v100h345v-950h-345z" />
    <glyph glyph-name="braceleft.uc" horiz-adv-x="473" 
d="M131 180q0 54 -24.5 82.5t-82.5 30.5v108q57 2 82 32.5t25 81.5v169q0 74 33.5 106t114.5 32h163v-100h-125q-36 0 -49.5 -15t-13.5 -49v-156q0 -28 -3.5 -53t-14.5 -45.5t-32.5 -35.5t-57.5 -22q36 -5 57 -18.5t32.5 -33.5t15 -45.5t3.5 -54.5v-156q0 -35 13.5 -50.5
t49.5 -15.5h125v-100h-163q-81 0 -114.5 32t-33.5 106v170z" />
    <glyph glyph-name="braceright.uc" horiz-adv-x="473" 
d="M342 514q0 -54 24.5 -82.5t82.5 -30.5v-108q-57 -2 -82 -32.5t-25 -81.5v-169q0 -74 -33.5 -106t-114.5 -32h-163v100h125q36 0 49.5 15t13.5 49v156q0 28 3.5 53t14.5 45.5t32.5 35t57.5 22.5q-36 5 -57 18.5t-32.5 33.5t-15 45.5t-3.5 54.5v156q0 35 -13.5 50.5
t-49.5 15.5h-125v100h163q81 0 114.5 -32t33.5 -106v-170z" />
    <glyph glyph-name="guilsinglleft.uc" horiz-adv-x="376" 
d="M54 396l250 180v-116l-155 -109l156 -107v-120l-251 180v92z" />
    <glyph glyph-name="guilsinglright.uc" horiz-adv-x="376" 
d="M323 304l-250 -180v116l155 109l-156 107v120l251 -180v-92z" />
    <glyph glyph-name="guillemotleft.uc" horiz-adv-x="634" 
d="M54 396l250 180v-116l-155 -109l156 -107v-120l-251 180v92zM312 396l250 180v-116l-155 -109l156 -107v-120l-251 180v92z" />
    <glyph glyph-name="guillemotright.uc" horiz-adv-x="634" 
d="M581 304l-250 -180v116l155 109l-156 107v120l251 -180v-92zM323 304l-250 -180v116l155 109l-156 107v120l251 -180v-92z" />
    <glyph glyph-name="slash.uc" horiz-adv-x="549" 
d="M532 750l-376 -810h-138l375 810h139z" />
    <glyph glyph-name="backslash.uc" horiz-adv-x="549" 
d="M159 750l373 -810h-141l-373 810h141z" />
    <glyph glyph-name="bar.uc" horiz-adv-x="288" 
d="M208 790v-890h-128v890h128z" />
    <glyph glyph-name="at.uc" horiz-adv-x="1175" 
d="M302 343q0 63 16 108t46 73.5t73.5 42t98.5 13.5q63 0 109 -19t74 -61v65h118v-257q0 -34 5.5 -55t16.5 -32.5t26.5 -15.5t36.5 -4q44 0 67.5 31.5t23.5 108.5v56q0 84 -27.5 143t-81 96t-131.5 53.5t-179 16.5q-99 0 -178.5 -17.5t-136 -56t-87 -100.5t-30.5 -152v-68
q0 -94 32.5 -156t90 -99t137 -52t172.5 -15q30 0 67.5 2.5t75 7.5t70.5 12t55 17v-91q-20 -9 -49.5 -16.5t-65 -13t-75 -8.5t-78.5 -3q-116 0 -215.5 19.5t-173.5 70t-116 137.5t-42 222q0 123 39.5 209t111.5 140t172.5 78.5t223.5 24.5q124 0 223 -24t168 -74.5
t106 -129.5t37 -189q0 -144 -55.5 -207.5t-158.5 -63.5q-83 0 -126 31.5t-51 78.5q-24 -57 -75 -83.5t-126 -26.5q-54 0 -97.5 13t-74 41t-46.5 72.5t-16 106.5zM716 368q0 66 -36 94t-108 28q-71 0 -107 -28.5t-36 -94.5v-47q0 -62 36 -91t107 -29q72 0 108 29.5t36 92.5
v46z" />
    <glyph glyph-name="arrowleft" unicode="&#x2190;" horiz-adv-x="979" 
d="M225 308l224 -131v-106l-379 230v95l378 232v-100l-221 -131h672v-89h-674z" />
    <glyph glyph-name="arrowright" unicode="&#x2192;" horiz-adv-x="979" 
d="M754 397l-224 131v106l379 -230v-95l-378 -232v100l221 131h-672v89h674z" />
    <glyph glyph-name="numbersign.icon" horiz-adv-x="930" 
d="M531 155h-227l-36 -155h-125l36 155h-138l24 102h138l38 166h-167l24 102h167l39 165h124l-39 -165h228l39 165h124l-39 -165h148l-24 -102h-148l-38 -166h174l-24 -102h-174l-36 -155h-124zM327 257h228l38 166h-227z" />
    <glyph glyph-name="asterisk.icon" horiz-adv-x="822" 
d="M478 690l-15 -262l250 146l64 -110l-264 -117l265 -119l-65 -112l-251 149l16 -265h-138l18 266l-247 -150l-66 111l260 120l-259 116l65 112l246 -147l-17 262h138z" />
    <glyph glyph-name="uniF8FF" unicode="&#xf8ff;" horiz-adv-x="1011" 
d="M656 613q9 0 28 -1.5t42 -9t47.5 -24t45.5 -46.5q-1 -2 -15 -11.5t-30 -29t-29.5 -48.5t-13.5 -69q0 -46 17 -77.5t37 -51t37.5 -28t18.5 -8.5q0 -2 -3.5 -12.5t-10 -26.5t-17 -36.5t-24.5 -42.5q-14 -19 -27.5 -37t-29.5 -32.5t-34 -23t-39 -8.5t-35.5 5t-28.5 11
t-30.5 11t-40.5 5t-40.5 -5.5t-31.5 -11.5t-30 -11.5t-34 -5.5q-20 0 -36.5 8.5t-31.5 22.5t-30 33t-30 40q-18 26 -34 58.5t-27.5 67.5t-18.5 72.5t-7 74.5q0 60 18 106.5t47.5 77.5t67 47t75.5 16q20 0 38.5 -5.5t35 -12.5t31.5 -12.5t28 -5.5q12 0 27.5 6t34 12.5
t39.5 12.5t44 6zM628 681q-21 -25 -52.5 -41.5t-59.5 -16.5h-13q-1 2 -1 6.5v9.5q0 32 14.5 61.5t31.5 49.5q23 26 56.5 43.5t64.5 18.5q2 -4 2 -17q0 -32 -12 -61t-31 -53z" />
    <glyph glyph-name="egg.icon" horiz-adv-x="1007" 
d="M836 292q0 -69 -20 -134.5t-61 -117.5t-104 -83.5t-148 -31.5q-86 0 -148.5 31.5t-103.5 83t-61 116.5t-20 133q0 65 13 131.5t36 128t54.5 115t68.5 93t78 62t83 22.5t83 -22.5t78 -62t68.5 -93t54.5 -114.5t36 -126.5t13 -130.5z" />
    <glyph glyph-name="phone1.icon" horiz-adv-x="573" 
d="M151 -13q-26 0 -48.5 11t-40.5 23q-37 27 -37 48q0 8 4 16t23 31l83 102q14 17 21 19t11 2q11 0 19 -4.5t19 -11.5t21.5 -13.5t23.5 -6.5q7 0 15 4t18.5 15.5t24 31.5t31.5 52q32 56 39.5 89t7.5 42q0 11 -6.5 18.5t-26.5 18.5q-26 14 -34 20.5t-8 17.5q0 6 2 13t7 20
l54 124q10 23 17 28.5t16 5.5q10 0 33 -8.5t51 -25.5q29 -17 43 -37.5t14 -54.5q0 -42 -25 -116t-88 -194q-35 -66 -68 -113.5t-61.5 -79t-51 -49t-35.5 -23.5q-19 -10 -34.5 -12.5t-33.5 -2.5z" />
    </font>
</defs>
</svg>
